<svg width="202" height="39" viewBox="0 0 202 39" fill="none" xmlns="http://www.w3.org/2000/svg">
<path d="M12.6546 11.6232L12.2176 15.4285H11.635L11.3983 13.7534C11.3255 13.1708 11.2041 12.7884 11.0342 12.6064C10.8642 12.4243 10.5486 12.3333 10.0874 12.3333H0.437556V11.8052C0.959496 11.7688 1.31757 11.7142 1.51178 11.6414C1.70599 11.5564 1.83951 11.3986 1.91234 11.168C1.99731 10.9374 2.03979 10.5368 2.03979 9.96631V2.75626C2.03979 2.0037 1.95482 1.54245 1.78489 1.37251C1.61496 1.19044 1.17191 1.06906 0.455763 1.00837V0.498567H5.3353V1.00837C4.61914 1.06906 4.1761 1.19044 4.00617 1.37251C3.83623 1.54245 3.75127 2.0037 3.75127 2.75626V10.3487C3.75127 10.9313 3.81196 11.2954 3.93334 11.4411C4.06686 11.5746 4.4128 11.6414 4.97115 11.6414H8.02996C8.57618 11.6414 8.91605 11.5807 9.04957 11.4593C9.18308 11.3379 9.24984 10.9981 9.24984 10.4397V2.8655C9.24984 2.06439 9.16488 1.57279 8.99494 1.39072C8.83715 1.19651 8.39411 1.06906 7.66582 1.00837V0.498567H12.5089V1.00837C11.8049 1.06906 11.3679 1.19651 11.198 1.39072C11.0402 1.57279 10.9613 2.06439 10.9613 2.8655V10.7128C10.9613 11.1255 10.9977 11.3804 11.0706 11.4775C11.1434 11.5746 11.3133 11.6232 11.5804 11.6232H12.6546ZM20.0904 10.3487L20.3635 10.7492C19.8658 11.3925 19.3378 11.8538 18.7795 12.133C18.2333 12.4121 17.7538 12.5517 17.3411 12.5517C16.2487 12.5517 15.3808 12.1755 14.7375 11.4229C14.0941 10.6703 13.7725 9.7539 13.7725 8.6736C13.7725 7.41124 14.1791 6.34308 14.9924 5.46913C15.8178 4.58305 16.7099 4.14001 17.6688 4.14001H17.687C18.4396 4.14001 19.089 4.42525 19.6352 4.99575C20.1814 5.5541 20.4545 6.19742 20.4545 6.92571C20.4545 7.11992 20.4242 7.26558 20.3635 7.36268C20.3028 7.44765 20.1875 7.50227 20.0176 7.52655C19.3257 7.64793 17.7659 7.7511 15.3383 7.83607C15.3504 8.95278 15.6236 9.80245 16.1576 10.3851C16.6917 10.9556 17.3108 11.2408 18.0148 11.2408C18.7552 11.2408 19.4471 10.9434 20.0904 10.3487ZM17.2501 4.83188C16.8374 4.83188 16.4611 5.03216 16.1212 5.43272C15.7813 5.82114 15.5507 6.36736 15.4293 7.07137C16.3883 7.07137 17.3654 7.05316 18.3607 7.01675C18.6399 7.01675 18.7795 6.89537 18.7795 6.6526C18.7916 6.15494 18.652 5.7301 18.3607 5.3781C18.0815 5.01395 17.7113 4.83188 17.2501 4.83188ZM30.3913 12.3333H26.6042V11.8417C27.0775 11.7931 27.3689 11.696 27.4781 11.5503C27.5873 11.4047 27.642 11.0527 27.642 10.4943V8.45512H24.2918V10.4943C24.2918 11.0648 24.3404 11.4229 24.4375 11.5685C24.5467 11.7021 24.8259 11.7931 25.275 11.8417V12.3333H21.5061V11.8417C22.0524 11.7931 22.3862 11.7021 22.5075 11.5685C22.6289 11.435 22.6896 11.077 22.6896 10.4943V6.06997C22.6896 5.54803 22.6289 5.22637 22.5075 5.10499C22.3862 4.97147 22.0402 4.88043 21.4697 4.83188V4.35849H25.2568V4.83188C24.8199 4.88043 24.5467 4.97147 24.4375 5.10499C24.3404 5.23851 24.2918 5.56017 24.2918 6.06997V7.74504H27.642V6.05177C27.642 5.54196 27.5873 5.22637 27.4781 5.10499C27.3689 4.97147 27.0715 4.88043 26.586 4.83188V4.35849H30.3366V4.83188C29.839 4.88043 29.5294 4.97147 29.4081 5.10499C29.2988 5.22637 29.2442 5.54196 29.2442 6.05177V10.5125C29.2442 11.0709 29.3049 11.4229 29.4263 11.5685C29.5477 11.7021 29.8693 11.7931 30.3913 11.8417V12.3333ZM38.7393 6.6526L38.2295 6.70722C38.1081 6.08818 37.9806 5.66334 37.8471 5.43272C37.6772 5.11713 37.3009 4.95933 36.7183 4.95933H35.9536V10.5854C35.9536 11.0952 36.0203 11.4229 36.1538 11.5685C36.2995 11.7021 36.6758 11.7931 37.2827 11.8417V12.3333H33.0586V11.8417C33.6534 11.7931 34.0175 11.7021 34.151 11.5685C34.2846 11.4229 34.3513 11.0952 34.3513 10.5854V4.95933H33.5138C32.9797 4.95933 32.6277 5.1232 32.4578 5.45093C32.3 5.81507 32.1543 6.23384 32.0208 6.70722L31.5292 6.6526C31.5413 6.50695 31.5899 5.74224 31.6749 4.35849H38.7028C38.7028 4.81974 38.715 5.58445 38.7393 6.6526ZM42.6904 5.3781L44.2926 4.43132C44.6082 4.23711 44.9116 4.14001 45.203 4.14001C46.174 4.14001 46.9509 4.48595 47.5335 5.17782C48.1283 5.85756 48.4256 6.66474 48.4256 7.59938C48.4256 8.89816 47.9887 9.99059 47.1147 10.8767C46.2529 11.7506 45.1908 12.309 43.9285 12.5517C43.4551 12.5396 43.0424 12.4364 42.6904 12.2422V14.6092C42.6904 15.2768 42.7693 15.6834 42.9271 15.829C43.0849 15.9868 43.5158 16.0961 44.2198 16.1568V16.6666H39.7772V16.1568C40.372 16.0961 40.7361 15.9929 40.8696 15.8472C41.0153 15.7016 41.0881 15.3374 41.0881 14.7548V6.54336C41.0881 5.97287 41.0274 5.62693 40.9061 5.50555C40.7968 5.37203 40.463 5.27492 39.9047 5.21423V4.75905C40.7179 4.6134 41.6465 4.34636 42.6904 3.95794V5.3781ZM42.6904 5.99714V10.9495C42.8846 11.1559 43.1334 11.3258 43.4369 11.4593C43.7525 11.5928 44.0559 11.6596 44.3472 11.6596C45.0755 11.6596 45.6581 11.3622 46.0951 10.7674C46.5321 10.1605 46.7506 9.35334 46.7506 8.34587C46.7506 7.38696 46.5199 6.64047 46.0587 6.10639C45.5974 5.56017 45.0391 5.28706 44.3836 5.28706C43.8738 5.28706 43.3094 5.52376 42.6904 5.99714ZM56.3991 5.3781L58.0013 4.43132C58.3169 4.23711 58.6204 4.14001 58.9117 4.14001C59.8828 4.14001 60.6596 4.48595 61.2422 5.17782C61.837 5.85756 62.1344 6.66474 62.1344 7.59938C62.1344 8.89816 61.6974 9.99059 60.8235 10.8767C59.9617 11.7506 58.8996 12.309 57.6372 12.5517C57.1638 12.5396 56.7511 12.4364 56.3991 12.2422V14.6092C56.3991 15.2768 56.478 15.6834 56.6358 15.829C56.7936 15.9868 57.2245 16.0961 57.9285 16.1568V16.6666H53.486V16.1568C54.0807 16.0961 54.4449 15.9929 54.5784 15.8472C54.7241 15.7016 54.7969 15.3374 54.7969 14.7548V6.54336C54.7969 5.97287 54.7362 5.62693 54.6148 5.50555C54.5056 5.37203 54.1718 5.27492 53.6134 5.21423V4.75905C54.4267 4.6134 55.3552 4.34636 56.3991 3.95794V5.3781ZM56.3991 5.99714V10.9495C56.5933 11.1559 56.8422 11.3258 57.1456 11.4593C57.4612 11.5928 57.7647 11.6596 58.056 11.6596C58.7843 11.6596 59.3669 11.3622 59.8039 10.7674C60.2408 10.1605 60.4593 9.35334 60.4593 8.34587C60.4593 7.38696 60.2287 6.64047 59.7674 6.10639C59.3062 5.56017 58.7478 5.28706 58.0924 5.28706C57.5826 5.28706 57.0182 5.52376 56.3991 5.99714ZM69.9824 10.3487L70.2555 10.7492C69.7578 11.3925 69.2298 11.8538 68.6715 12.133C68.1253 12.4121 67.6458 12.5517 67.2331 12.5517C66.1407 12.5517 65.2728 12.1755 64.6295 11.4229C63.9862 10.6703 63.6645 9.7539 63.6645 8.6736C63.6645 7.41124 64.0711 6.34308 64.8844 5.46913C65.7098 4.58305 66.6019 4.14001 67.5608 4.14001H67.5791C68.3316 4.14001 68.981 4.42525 69.5272 4.99575C70.0734 5.5541 70.3465 6.19742 70.3465 6.92571C70.3465 7.11992 70.3162 7.26558 70.2555 7.36268C70.1948 7.44765 70.0795 7.50227 69.9096 7.52655C69.2177 7.64793 67.6579 7.7511 65.2303 7.83607C65.2425 8.95278 65.5156 9.80245 66.0496 10.3851C66.5837 10.9556 67.2028 11.2408 67.9068 11.2408C68.6472 11.2408 69.3391 10.9434 69.9824 10.3487ZM67.1421 4.83188C66.7294 4.83188 66.3531 5.03216 66.0132 5.43272C65.6734 5.82114 65.4427 6.36736 65.3214 7.07137C66.2803 7.07137 67.2574 7.05316 68.2527 7.01675C68.5319 7.01675 68.6715 6.89537 68.6715 6.6526C68.6836 6.15494 68.544 5.7301 68.2527 5.3781C67.9735 5.01395 67.6033 4.83188 67.1421 4.83188ZM80.3561 12.3333H76.4051V11.8417C76.9271 11.7931 77.2427 11.696 77.3519 11.5503C77.4612 11.4047 77.5158 11.0466 77.5158 10.4761V5.77866C77.5158 5.42665 77.4733 5.20816 77.3883 5.1232C77.3155 5.03823 77.1152 4.99575 76.7875 4.99575H74.9121C74.5844 4.99575 74.3781 5.03823 74.2931 5.1232C74.2203 5.20816 74.1839 5.42665 74.1839 5.77866V10.4761C74.1839 11.0466 74.2385 11.4047 74.3477 11.5503C74.457 11.696 74.7544 11.7931 75.2399 11.8417V12.3333H71.3617V11.8417C71.9201 11.7931 72.26 11.696 72.3813 11.5503C72.5149 11.4047 72.5816 11.0527 72.5816 10.4943V6.08818C72.5816 5.56624 72.5209 5.24458 72.3996 5.1232C72.2782 4.98968 71.9262 4.89864 71.3435 4.85009V4.35849H80.3197V4.85009C79.7613 4.89864 79.4215 4.98968 79.3001 5.1232C79.1787 5.25672 79.118 5.57838 79.118 6.08818V10.4761C79.118 11.0345 79.1787 11.3925 79.3001 11.5503C79.4336 11.696 79.7856 11.7931 80.3561 11.8417V12.3333ZM84.1367 5.3781L85.7389 4.43132C86.0545 4.23711 86.3579 4.14001 86.6492 4.14001C87.6203 4.14001 88.3971 4.48595 88.9798 5.17782C89.5745 5.85756 89.8719 6.66474 89.8719 7.59938C89.8719 8.89816 89.4349 9.99059 88.561 10.8767C87.6992 11.7506 86.6371 12.309 85.3747 12.5517C84.9014 12.5396 84.4887 12.4364 84.1367 12.2422V14.6092C84.1367 15.2768 84.2155 15.6834 84.3733 15.829C84.5311 15.9868 84.962 16.0961 85.6661 16.1568V16.6666H81.2235V16.1568C81.8183 16.0961 82.1824 15.9929 82.3159 15.8472C82.4616 15.7016 82.5344 15.3374 82.5344 14.7548V6.54336C82.5344 5.97287 82.4737 5.62693 82.3523 5.50555C82.2431 5.37203 81.9093 5.27492 81.3509 5.21423V4.75905C82.1642 4.6134 83.0928 4.34636 84.1367 3.95794V5.3781ZM84.1367 5.99714V10.9495C84.3309 11.1559 84.5797 11.3258 84.8831 11.4593C85.1987 11.5928 85.5022 11.6596 85.7935 11.6596C86.5218 11.6596 87.1044 11.3622 87.5414 10.7674C87.9784 10.1605 88.1969 9.35334 88.1969 8.34587C88.1969 7.38696 87.9662 6.64047 87.505 6.10639C87.0437 5.56017 86.4854 5.28706 85.8299 5.28706C85.3201 5.28706 84.7557 5.52376 84.1367 5.99714ZM95.4805 4.14001C96.6093 4.14001 97.55 4.54057 98.3026 5.34168C99.0551 6.13066 99.4314 7.08958 99.4314 8.21842C99.4314 9.59003 99.0248 10.6582 98.2115 11.4229C97.3983 12.1755 96.4758 12.5517 95.444 12.5517C94.2181 12.5517 93.2349 12.1512 92.4945 11.3501C91.7662 10.5489 91.402 9.60824 91.402 8.52795C91.402 7.58117 91.6266 6.76185 92.0757 6.06997C92.5248 5.3781 93.0468 4.8865 93.6415 4.59519C94.2484 4.29174 94.8614 4.14001 95.4805 4.14001ZM95.2256 4.75905C94.6793 4.75905 94.212 5.03823 93.8236 5.59659C93.4473 6.15494 93.2592 6.93178 93.2592 7.92711C93.2592 9.09237 93.4777 10.0513 93.9146 10.8038C94.3516 11.5564 94.9282 11.9327 95.6443 11.9327C96.931 11.9327 97.5743 10.8342 97.5743 8.63719C97.5743 7.4962 97.3679 6.56764 96.9552 5.85149C96.5425 5.1232 95.966 4.75905 95.2256 4.75905ZM108.299 4.35849V4.85009C107.704 4.89864 107.34 4.98361 107.206 5.10499C107.073 5.22637 107.006 5.52983 107.006 6.01535V10.731C107.006 11.1437 107.042 11.4047 107.115 11.5139C107.188 11.6232 107.364 11.6778 107.643 11.6778H108.353L107.989 15.0643H107.425L107.206 13.4985C107.133 13.013 107.036 12.6974 106.915 12.5517C106.794 12.4061 106.563 12.3333 106.223 12.3333H102.199C101.884 12.3333 101.665 12.4121 101.544 12.5699C101.422 12.7399 101.295 13.104 101.162 13.6624L100.816 15.0643H100.269V11.6778H100.925C101.119 11.6778 101.265 11.5807 101.362 11.3865C101.58 10.8888 101.775 10.2516 101.944 9.47472C102.199 8.29732 102.327 7.04709 102.327 5.72404C102.327 5.44486 102.272 5.25672 102.163 5.15961C102.054 5.05037 101.823 4.97147 101.471 4.92292L100.943 4.85009V4.35849H108.299ZM105.404 10.731V5.70583C105.404 5.36596 105.367 5.15961 105.295 5.08678C105.222 5.01395 105.028 4.97754 104.712 4.97754H103.747C103.504 4.97754 103.346 5.02609 103.274 5.1232C103.213 5.20816 103.176 5.40237 103.164 5.70583C103.152 6.72543 103.073 7.76324 102.928 8.81926C102.782 9.87528 102.606 10.7249 102.4 11.3683C102.351 11.5868 102.424 11.696 102.618 11.696H104.457C104.906 11.696 105.173 11.6474 105.258 11.5503C105.355 11.4532 105.404 11.1801 105.404 10.731ZM117.959 4.35849V4.85009C117.522 4.93506 117.213 5.06251 117.031 5.23244C116.861 5.39024 116.66 5.74224 116.43 6.28846C116.078 7.10171 115.41 8.78892 114.427 11.3501C113.504 13.717 112.843 15.2221 112.442 15.8655C111.981 16.6059 111.568 16.9761 111.204 16.9761C110.937 16.9761 110.707 16.879 110.512 16.6848C110.318 16.4906 110.215 16.2599 110.203 15.9929C110.203 15.7259 110.324 15.5741 110.567 15.5377C111.502 15.3071 112.193 14.7305 112.643 13.808C112.861 13.3589 113.019 12.9887 113.116 12.6974C113.165 12.5517 113.146 12.3333 113.061 12.0419C112.552 10.6461 111.769 8.64326 110.713 6.03356C110.543 5.60872 110.361 5.31741 110.166 5.15961C109.984 5.00182 109.669 4.89864 109.22 4.85009V4.35849H113.189V4.85009L112.588 4.99575C112.394 5.0443 112.278 5.12927 112.242 5.25065C112.218 5.35989 112.254 5.53589 112.351 5.77866L114.081 10.3851C114.312 9.82673 114.609 9.02561 114.973 7.98173C115.337 6.93785 115.58 6.19742 115.701 5.76045C115.774 5.49341 115.78 5.31741 115.72 5.23244C115.659 5.13534 115.507 5.05644 115.264 4.99575L114.645 4.85009V4.35849H117.959ZM126.802 12.3333H125.528C125.115 12.3333 124.763 12.2665 124.472 12.133C124.193 11.9995 123.926 11.7203 123.671 11.2954C123.549 11.0891 123.197 10.3972 122.615 9.21982C122.457 8.89209 122.269 8.66753 122.05 8.54615C121.832 8.42477 121.541 8.37015 121.176 8.38229V10.64C121.176 11.1134 121.237 11.4229 121.358 11.5685C121.492 11.7021 121.826 11.7931 122.36 11.8417V12.3333H118.427V11.8417C118.961 11.7931 119.289 11.7021 119.41 11.5685C119.544 11.4229 119.611 11.1134 119.611 10.64V6.03356C119.611 5.54803 119.55 5.24458 119.428 5.1232C119.319 4.98968 119.004 4.89864 118.482 4.85009V4.35849H122.251V4.85009C121.765 4.89864 121.462 4.98968 121.34 5.1232C121.231 5.24458 121.176 5.54803 121.176 6.03356V7.81786C121.698 7.79359 122.147 7.60545 122.524 7.25344C122.73 7.04709 123.155 6.44625 123.798 5.45093C124.344 4.58912 124.915 4.15822 125.51 4.15822C125.765 4.15822 125.965 4.22498 126.111 4.35849C126.268 4.47988 126.347 4.6316 126.347 4.81368C126.347 5.17782 126.129 5.35989 125.692 5.35989H125.382C125.079 5.35989 124.818 5.457 124.599 5.65121C124.381 5.84542 124.132 6.14887 123.853 6.56157C123.537 7.07137 123.185 7.46586 122.797 7.74504V7.81786C123.331 7.9878 123.756 8.29125 124.071 8.72822C124.193 8.9103 124.545 9.499 125.127 10.4943C125.431 11.0041 125.692 11.3501 125.91 11.5321C126.141 11.7142 126.438 11.8174 126.802 11.8417V12.3333ZM136.723 11.6778L136.34 15.0825H135.776L135.539 13.5167C135.466 13.0191 135.369 12.6974 135.248 12.5517C135.139 12.4061 134.914 12.3333 134.574 12.3333H127.583V11.8417C128.165 11.7931 128.517 11.7021 128.639 11.5685C128.772 11.4229 128.839 11.0891 128.839 10.5672V6.08818C128.839 5.56624 128.778 5.24458 128.657 5.1232C128.536 4.98968 128.202 4.89257 127.656 4.83188V4.35849H131.406V4.83188C130.969 4.88043 130.696 4.97147 130.587 5.10499C130.49 5.23851 130.441 5.56624 130.441 6.08818V10.8949C130.441 11.2469 130.484 11.4654 130.569 11.5503C130.654 11.6353 130.86 11.6778 131.188 11.6778H133.027C133.354 11.6778 133.561 11.6353 133.646 11.5503C133.731 11.4654 133.773 11.2469 133.773 10.8949V6.08818C133.773 5.56624 133.719 5.23851 133.609 5.10499C133.5 4.97147 133.197 4.88043 132.699 4.83188V4.35849H136.595V4.83188C136.025 4.88043 135.679 4.97754 135.558 5.1232C135.436 5.25672 135.375 5.58445 135.375 6.10639V10.731C135.375 11.1437 135.412 11.4047 135.485 11.5139C135.558 11.6232 135.734 11.6778 136.013 11.6778H136.723ZM146.856 4.35849V4.81368C146.285 4.86223 145.933 4.95326 145.799 5.08678C145.678 5.20816 145.617 5.49341 145.617 5.94252V10.6036C145.617 11.1134 145.678 11.435 145.799 11.5685C145.933 11.7021 146.285 11.7931 146.856 11.8417V12.3333H143.014V11.8417C143.487 11.7931 143.778 11.7021 143.888 11.5685C144.009 11.435 144.07 11.1194 144.07 10.6218V8.07277C144.07 7.3202 144.094 6.49481 144.143 5.59659H144.106L140.956 11.6414C140.847 11.8477 140.793 12.0359 140.793 12.2058V12.3333H137.843V11.8417C138.401 11.7931 138.741 11.696 138.863 11.5503C138.984 11.4047 139.045 11.0527 139.045 10.4943V6.10639C139.045 5.57231 138.984 5.23851 138.863 5.10499C138.741 4.95933 138.401 4.86223 137.843 4.81368V4.35849H141.721V4.81368C141.199 4.86223 140.877 4.95933 140.756 5.10499C140.647 5.23851 140.592 5.56624 140.592 6.08818V8.14559C140.592 9.14092 140.568 10.0998 140.519 11.0223H140.556L143.778 4.8865C143.851 4.70443 143.888 4.57091 143.888 4.48595V4.35849H146.856ZM157.044 4.35849V4.81368C156.473 4.86223 156.121 4.95326 155.988 5.08678C155.866 5.20816 155.806 5.49341 155.806 5.94252V10.6036C155.806 11.1134 155.866 11.435 155.988 11.5685C156.121 11.7021 156.473 11.7931 157.044 11.8417V12.3333H153.202V11.8417C153.675 11.7931 153.967 11.7021 154.076 11.5685C154.197 11.435 154.258 11.1194 154.258 10.6218V8.07277C154.258 7.3202 154.282 6.49481 154.331 5.59659H154.294L151.145 11.6414C151.035 11.8477 150.981 12.0359 150.981 12.2058V12.3333H148.031V11.8417C148.59 11.7931 148.929 11.696 149.051 11.5503C149.172 11.4047 149.233 11.0527 149.233 10.4943V6.10639C149.233 5.57231 149.172 5.23851 149.051 5.10499C148.929 4.95933 148.59 4.86223 148.031 4.81368V4.35849H151.909V4.81368C151.387 4.86223 151.066 4.95933 150.944 5.10499C150.835 5.23851 150.78 5.56624 150.78 6.08818V8.14559C150.78 9.14092 150.756 10.0998 150.708 11.0223H150.744L153.967 4.8865C154.04 4.70443 154.076 4.57091 154.076 4.48595V4.35849H157.044ZM11.4529 34.3333H9.83248C9.27412 34.3333 8.83715 34.2058 8.52156 33.9509C8.20596 33.6839 7.90251 33.253 7.6112 32.6582C6.93146 31.2502 6.51269 30.3884 6.3549 30.0728C6.02717 29.3566 5.67516 28.8893 5.29888 28.6708C4.9226 28.4523 4.40673 28.3491 3.75127 28.3613V32.0027C3.75127 32.7796 3.83017 33.259 3.98796 33.4411C4.14576 33.6232 4.57666 33.7446 5.28067 33.8052V34.3333H0.510385V33.8052C1.2144 33.7446 1.6453 33.6292 1.8031 33.4593C1.96089 33.2772 2.03979 32.7978 2.03979 32.0209V24.7198C2.03979 23.9794 1.96089 23.5303 1.8031 23.3725C1.6453 23.2026 1.2144 23.0873 0.510385 23.0266V22.4986H5.28067V23.0266C4.57666 23.0873 4.14576 23.2026 3.98796 23.3725C3.83017 23.5303 3.75127 23.9794 3.75127 24.7198V27.7422C4.35817 27.7301 4.81942 27.6755 5.13502 27.5784C5.45061 27.4691 5.76013 27.2749 6.06358 26.9957C6.24566 26.8258 6.42773 26.5952 6.6098 26.3039C6.79187 26.0004 6.93146 25.7334 7.02857 25.5028C7.13781 25.2721 7.34416 24.817 7.64761 24.1372C8.2181 22.887 8.93425 22.2497 9.79606 22.2255C10.0995 22.2255 10.3423 22.2983 10.5243 22.4439C10.7064 22.5896 10.7975 22.7717 10.7975 22.9902C10.7975 23.148 10.7186 23.2815 10.5608 23.3907C10.4151 23.4878 10.2452 23.5364 10.051 23.5364H9.6504C9.28626 23.5364 8.97674 23.7002 8.72184 24.028C8.46693 24.3436 8.10279 24.9687 7.6294 25.9033C7.14388 26.8865 6.55518 27.5602 5.8633 27.9243V27.9789C6.81008 28.2338 7.53837 28.8104 8.04817 29.7086C8.14527 29.8786 8.26059 30.097 8.39411 30.3641C8.53976 30.6311 8.71577 30.9649 8.92211 31.3655C9.12846 31.7539 9.30447 32.0816 9.45012 32.3487C9.74144 32.8949 10.0267 33.2651 10.3059 33.4593C10.5972 33.6414 10.9795 33.7567 11.4529 33.8052V34.3333ZM20.2147 26.3585V26.8501C19.6442 26.8986 19.2922 26.9957 19.1587 27.1414C19.0373 27.2749 18.9766 27.5966 18.9766 28.1064V32.4761C18.9766 33.0466 19.0373 33.4047 19.1587 33.5503C19.2922 33.696 19.6442 33.7931 20.2147 33.8417V34.3333H16.1363V33.8417C16.7068 33.7931 17.0527 33.696 17.1741 33.5503C17.3076 33.4047 17.3744 33.0527 17.3744 32.4943V27.7969C17.3744 27.4691 17.338 27.2567 17.2651 27.1596C17.1923 27.0625 17.0163 27.014 16.7371 27.014H15.845C15.5658 27.014 15.3837 27.0625 15.2988 27.1596C15.2259 27.2446 15.1834 27.4388 15.1713 27.7422C15.1106 30.4976 14.613 32.5732 13.6783 33.9691C13.3991 34.3697 13.12 34.5699 12.8408 34.5699C12.5859 34.5699 12.3188 34.5153 12.0397 34.4061V34.0966C12.6709 33.5625 13.1807 32.8342 13.5691 31.9117C14.0667 30.7343 14.3156 29.4112 14.3156 27.9425C14.3156 27.5298 14.2427 27.2628 14.0971 27.1414C13.9514 27.0079 13.5691 26.9108 12.95 26.8501V26.3585H20.2147ZM30.3578 26.3585V26.8137C29.7873 26.8622 29.4353 26.9533 29.3018 27.0868C29.1804 27.2082 29.1197 27.4934 29.1197 27.9425V32.6036C29.1197 33.1134 29.1804 33.435 29.3018 33.5685C29.4353 33.7021 29.7873 33.7931 30.3578 33.8417V34.3333H26.5161V33.8417C26.9895 33.7931 27.2808 33.7021 27.3901 33.5685C27.5114 33.435 27.5721 33.1194 27.5721 32.6218V30.0728C27.5721 29.3202 27.5964 28.4948 27.645 27.5966H27.6085L24.4587 33.6414C24.3495 33.8477 24.2948 34.0359 24.2948 34.2058V34.3333H21.3453V33.8417C21.9036 33.7931 22.2435 33.696 22.3649 33.5503C22.4862 33.4047 22.5469 33.0527 22.5469 32.4943V28.1064C22.5469 27.5723 22.4862 27.2385 22.3649 27.105C22.2435 26.9593 21.9036 26.8622 21.3453 26.8137V26.3585H25.2234V26.8137C24.7015 26.8622 24.3798 26.9593 24.2584 27.105C24.1492 27.2385 24.0945 27.5662 24.0945 28.0882V30.1456C24.0945 31.1409 24.0703 32.0998 24.0217 33.0223H24.0581L27.2808 26.8865C27.3536 26.7044 27.3901 26.5709 27.3901 26.4859V26.3585H30.3578ZM40.455 34.3333H36.6679V33.8417C37.1413 33.7931 37.4326 33.696 37.5419 33.5503C37.6511 33.4047 37.7057 33.0527 37.7057 32.4943V30.4551H34.3556V32.4943C34.3556 33.0648 34.4041 33.4229 34.5012 33.5685C34.6105 33.7021 34.8897 33.7931 35.3388 33.8417V34.3333H31.5699V33.8417C32.1161 33.7931 32.4499 33.7021 32.5713 33.5685C32.6927 33.435 32.7534 33.077 32.7534 32.4943V28.07C32.7534 27.548 32.6927 27.2264 32.5713 27.105C32.4499 26.9715 32.104 26.8804 31.5335 26.8319V26.3585H35.3206V26.8319C34.8836 26.8804 34.6105 26.9715 34.5012 27.105C34.4041 27.2385 34.3556 27.5602 34.3556 28.07V29.745H37.7057V28.0518C37.7057 27.542 37.6511 27.2264 37.5419 27.105C37.4326 26.9715 37.1352 26.8804 36.6497 26.8319V26.3585H40.4004V26.8319C39.9027 26.8804 39.5932 26.9715 39.4718 27.105C39.3626 27.2264 39.308 27.542 39.308 28.0518V32.5125C39.308 33.0709 39.3686 33.4229 39.49 33.5685C39.6114 33.7021 39.9331 33.7931 40.455 33.8417V34.3333ZM50.6987 26.3585V26.8137C50.1282 26.8622 49.7762 26.9533 49.6427 27.0868C49.5213 27.2082 49.4606 27.4934 49.4606 27.9425V32.6036C49.4606 33.1134 49.5213 33.435 49.6427 33.5685C49.7762 33.7021 50.1282 33.7931 50.6987 33.8417V34.3333H46.857V33.8417C47.3304 33.7931 47.6217 33.7021 47.7309 33.5685C47.8523 33.435 47.913 33.1194 47.913 32.6218V30.0728C47.913 29.3202 47.9373 28.4948 47.9858 27.5966H47.9494L44.7996 33.6414C44.6903 33.8477 44.6357 34.0359 44.6357 34.2058V34.3333H41.6861V33.8417C42.2445 33.7931 42.5843 33.696 42.7057 33.5503C42.8271 33.4047 42.8878 33.0527 42.8878 32.4943V28.1064C42.8878 27.5723 42.8271 27.2385 42.7057 27.105C42.5843 26.9593 42.2445 26.8622 41.6861 26.8137V26.3585H45.5643V26.8137C45.0423 26.8622 44.7207 26.9593 44.5993 27.105C44.49 27.2385 44.4354 27.5662 44.4354 28.0882V30.1456C44.4354 31.1409 44.4111 32.0998 44.3626 33.0223H44.399L47.6217 26.8865C47.6945 26.7044 47.7309 26.5709 47.7309 26.4859V26.3585H50.6987ZM60.2679 34.3333H58.9934C58.5807 34.3333 58.2287 34.2665 57.9373 34.133C57.6582 33.9995 57.3911 33.7203 57.1362 33.2954C57.0148 33.0891 56.6628 32.3972 56.0802 31.2198C55.9224 30.8921 55.7343 30.6675 55.5158 30.5462C55.2973 30.4248 55.006 30.3701 54.6418 30.3823V32.64C54.6418 33.1134 54.7025 33.4229 54.8239 33.5685C54.9574 33.7021 55.2912 33.7931 55.8253 33.8417V34.3333H51.8925V33.8417C52.4266 33.7931 52.7544 33.7021 52.8757 33.5685C53.0093 33.4229 53.076 33.1134 53.076 32.64V28.0336C53.076 27.548 53.0153 27.2446 52.8939 27.1232C52.7847 26.9897 52.4691 26.8986 51.9472 26.8501V26.3585H55.7161V26.8501C55.2305 26.8986 54.9271 26.9897 54.8057 27.1232C54.6965 27.2446 54.6418 27.548 54.6418 28.0336V29.8179C55.1638 29.7936 55.6129 29.6054 55.9892 29.2534C56.1955 29.0471 56.6203 28.4463 57.2637 27.4509C57.8099 26.5891 58.3804 26.1582 58.9751 26.1582C59.23 26.1582 59.4303 26.225 59.576 26.3585C59.7338 26.4799 59.8127 26.6316 59.8127 26.8137C59.8127 27.1778 59.5942 27.3599 59.1572 27.3599H58.8477C58.5442 27.3599 58.2833 27.457 58.0648 27.6512C57.8463 27.8454 57.5975 28.1489 57.3183 28.5616C57.0027 29.0714 56.6507 29.4659 56.2623 29.745V29.8179C56.7964 29.9878 57.2212 30.2913 57.5368 30.7282C57.6582 30.9103 58.0102 31.499 58.5928 32.4943C58.8962 33.0041 59.1572 33.3501 59.3757 33.5321C59.6063 33.7142 59.9037 33.8174 60.2679 33.8417V34.3333ZM70.0972 26.3585V26.8137C69.5267 26.8622 69.1747 26.9533 69.0412 27.0868C68.9198 27.2082 68.8591 27.4934 68.8591 27.9425V32.6036C68.8591 33.1134 68.9198 33.435 69.0412 33.5685C69.1747 33.7021 69.5267 33.7931 70.0972 33.8417V34.3333H66.2555V33.8417C66.7289 33.7931 67.0202 33.7021 67.1294 33.5685C67.2508 33.435 67.3115 33.1194 67.3115 32.6218V30.0728C67.3115 29.3202 67.3358 28.4948 67.3843 27.5966H67.3479L64.1981 33.6414C64.0888 33.8477 64.0342 34.0359 64.0342 34.2058V34.3333H61.0846V33.8417C61.643 33.7931 61.9828 33.696 62.1042 33.5503C62.2256 33.4047 62.2863 33.0527 62.2863 32.4943V28.1064C62.2863 27.5723 62.2256 27.2385 62.1042 27.105C61.9828 26.9593 61.643 26.8622 61.0846 26.8137V26.3585H64.9628V26.8137C64.4408 26.8622 64.1192 26.9593 63.9978 27.105C63.8885 27.2385 63.8339 27.5662 63.8339 28.0882V30.1456C63.8339 31.1409 63.8096 32.0998 63.7611 33.0223H63.7975L67.0202 26.8865C67.093 26.7044 67.1294 26.5709 67.1294 26.4859V26.3585H70.0972ZM84.2475 31.3473L84.7937 31.4383C84.5995 32.5793 84.387 33.5443 84.1564 34.3333H75.2895V33.8052C76.1028 33.7446 76.6004 33.6232 76.7825 33.4411C76.9767 33.259 77.0738 32.7917 77.0738 32.0391V24.8473C77.0738 24.0462 76.9949 23.5607 76.8371 23.3907C76.6793 23.2086 76.2424 23.0873 75.5262 23.0266V22.4986H83.7195C83.7316 22.6442 83.7559 23.0448 83.7923 23.7002C83.8408 24.3436 83.8712 24.823 83.8833 25.1386L83.3371 25.2296C83.2036 24.5985 82.9972 24.0765 82.7181 23.6638C82.5845 23.4696 82.3721 23.3361 82.0808 23.2633C81.8016 23.1904 81.3464 23.154 80.7153 23.154H79.4043C79.113 23.154 78.937 23.1844 78.8763 23.2451C78.8156 23.3058 78.7853 23.4757 78.7853 23.7549V27.8515H80.4239C81.2251 27.8515 81.7227 27.7787 81.9169 27.633C82.1111 27.4873 82.2689 27.105 82.3903 26.4859H82.9365V29.9999H82.3903C82.2689 29.3566 82.1051 28.9621 81.8987 28.8165C81.7045 28.6708 81.2129 28.598 80.4239 28.598H78.7853V31.9663C78.7853 32.7674 78.931 33.2651 79.2223 33.4593C79.4529 33.605 80.0659 33.6778 81.0612 33.6778C81.7167 33.6778 82.2022 33.6353 82.5178 33.5503C82.8455 33.4654 83.1125 33.3076 83.3189 33.077C83.6709 32.6521 83.9804 32.0756 84.2475 31.3473ZM94.1397 34.3333H92.8652C92.4525 34.3333 92.1005 34.2665 91.8091 34.133C91.53 33.9995 91.2629 33.7203 91.008 33.2954C90.8866 33.0891 90.5346 32.3972 89.952 31.2198C89.7942 30.8921 89.6061 30.6675 89.3876 30.5462C89.1691 30.4248 88.8778 30.3701 88.5136 30.3823V32.64C88.5136 33.1134 88.5743 33.4229 88.6957 33.5685C88.8292 33.7021 89.163 33.7931 89.6971 33.8417V34.3333H85.7643V33.8417C86.2984 33.7931 86.6262 33.7021 86.7475 33.5685C86.8811 33.4229 86.9478 33.1134 86.9478 32.64V28.0336C86.9478 27.548 86.8871 27.2446 86.7657 27.1232C86.6565 26.9897 86.3409 26.8986 85.819 26.8501V26.3585H89.5879V26.8501C89.1023 26.8986 88.7989 26.9897 88.6775 27.1232C88.5683 27.2446 88.5136 27.548 88.5136 28.0336V29.8179C89.0356 29.7936 89.4847 29.6054 89.861 29.2534C90.0673 29.0471 90.4922 28.4463 91.1355 27.4509C91.6817 26.5891 92.2522 26.1582 92.847 26.1582C93.1019 26.1582 93.3021 26.225 93.4478 26.3585C93.6056 26.4799 93.6845 26.6316 93.6845 26.8137C93.6845 27.1778 93.466 27.3599 93.029 27.3599H92.7195C92.416 27.3599 92.1551 27.457 91.9366 27.6512C91.7181 27.8454 91.4693 28.1489 91.1901 28.5616C90.8745 29.0714 90.5225 29.4659 90.1341 29.745V29.8179C90.6682 29.9878 91.093 30.2913 91.4086 30.7282C91.53 30.9103 91.882 31.499 92.4646 32.4943C92.7681 33.0041 93.029 33.3501 93.2475 33.5321C93.4781 33.7142 93.7755 33.8174 94.1397 33.8417V34.3333ZM102.349 33.605L100.728 34.5517C100.376 34.5517 100.079 34.4304 99.836 34.1876C99.6296 33.9812 99.4779 33.7203 99.3808 33.4047C99.3444 33.429 99.2412 33.5018 99.0713 33.6232C98.9135 33.7324 98.7981 33.8113 98.7253 33.8599C98.6646 33.8963 98.5615 33.963 98.4158 34.0601C98.2823 34.1572 98.173 34.224 98.0881 34.2604C98.0152 34.2968 97.9242 34.3393 97.815 34.3879C97.7057 34.4486 97.6086 34.491 97.5236 34.5153C97.4387 34.5396 97.3598 34.5517 97.287 34.5517C96.6436 34.5517 96.1096 34.3272 95.6847 33.8781C95.2599 33.4168 95.0475 32.8949 95.0475 32.3123C95.0475 31.4626 95.533 30.8678 96.504 30.5279C98.1063 29.9696 99.0531 29.569 99.3444 29.3263V28.9803C99.3444 28.3491 99.2108 27.8576 98.9438 27.5055C98.6889 27.1414 98.3369 26.9593 97.8878 26.9593C97.5601 26.9593 97.2991 27.0746 97.1049 27.3053C96.8985 27.548 96.7225 27.9547 96.5769 28.5252C96.4919 28.8286 96.2977 28.9803 95.9942 28.9803C95.8 28.9803 95.6058 28.9014 95.4116 28.7436C95.2295 28.5737 95.1385 28.3856 95.1385 28.1792C95.1385 27.9607 95.3388 27.7058 95.7393 27.4145C96.0549 27.1839 96.4798 26.9411 97.0138 26.6862C97.5479 26.4192 98.0456 26.2371 98.5068 26.14C99.1259 26.14 99.6418 26.3039 100.054 26.6316C100.613 27.0929 100.892 27.8515 100.892 28.9075V32.2212C100.892 32.9374 101.104 33.2954 101.529 33.2954C101.748 33.2954 101.96 33.2348 102.166 33.1134L102.349 33.605ZM99.3444 32.8221V29.9635L97.815 30.6918C97.4508 30.8739 97.1838 31.062 97.0138 31.2562C96.8439 31.4504 96.7589 31.7053 96.7589 32.0209C96.7589 32.4579 96.8864 32.7978 97.1413 33.0405C97.4083 33.2833 97.6996 33.4047 98.0152 33.4047C98.4886 33.4047 98.9317 33.2105 99.3444 32.8221ZM109.897 28.6526L109.387 28.7072C109.266 28.0882 109.138 27.6633 109.005 27.4327C108.835 27.1171 108.458 26.9593 107.876 26.9593H107.111V32.5854C107.111 33.0952 107.178 33.4229 107.311 33.5685C107.457 33.7021 107.833 33.7931 108.44 33.8417V34.3333H104.216V33.8417C104.811 33.7931 105.175 33.7021 105.309 33.5685C105.442 33.4229 105.509 33.0952 105.509 32.5854V26.9593H104.671C104.137 26.9593 103.785 27.1232 103.615 27.4509C103.457 27.8151 103.312 28.2338 103.178 28.7072L102.687 28.6526C102.699 28.5069 102.747 27.7422 102.832 26.3585H109.86C109.86 26.8197 109.872 27.5844 109.897 28.6526ZM117.278 32.3487L117.552 32.7492C117.054 33.3925 116.526 33.8538 115.968 34.133C115.421 34.4121 114.942 34.5517 114.529 34.5517C113.437 34.5517 112.569 34.1755 111.926 33.4229C111.282 32.6703 110.961 31.7539 110.961 30.6736C110.961 29.4112 111.367 28.3431 112.18 27.4691C113.006 26.5831 113.898 26.14 114.857 26.14H114.875C115.628 26.14 116.277 26.4253 116.823 26.9957C117.369 27.5541 117.643 28.1974 117.643 28.9257C117.643 29.1199 117.612 29.2656 117.552 29.3627C117.491 29.4477 117.376 29.5023 117.206 29.5265C116.514 29.6479 114.954 29.7511 112.526 29.8361C112.539 30.9528 112.812 31.8025 113.346 32.3851C113.88 32.9556 114.499 33.2408 115.203 33.2408C115.943 33.2408 116.635 32.9434 117.278 32.3487ZM114.438 26.8319C114.025 26.8319 113.649 27.0322 113.309 27.4327C112.969 27.8211 112.739 28.3674 112.617 29.0714C113.576 29.0714 114.553 29.0532 115.549 29.0167C115.828 29.0167 115.968 28.8954 115.968 28.6526C115.98 28.1549 115.84 27.7301 115.549 27.3781C115.27 27.014 114.899 26.8319 114.438 26.8319ZM121.298 27.3781L122.9 26.4313C123.216 26.2371 123.519 26.14 123.81 26.14C124.781 26.14 125.558 26.4859 126.141 27.1778C126.736 27.8576 127.033 28.6647 127.033 29.5994C127.033 30.8982 126.596 31.9906 125.722 32.8767C124.86 33.7506 123.798 34.309 122.536 34.5517C122.063 34.5396 121.65 34.4364 121.298 34.2422V36.6092C121.298 37.2768 121.377 37.6834 121.535 37.829C121.692 37.9868 122.123 38.0961 122.827 38.1568V38.6666H118.385V38.1568C118.979 38.0961 119.344 37.9929 119.477 37.8472C119.623 37.7016 119.696 37.3374 119.696 36.7548V28.5434C119.696 27.9729 119.635 27.6269 119.514 27.5055C119.404 27.372 119.07 27.2749 118.512 27.2142V26.7591C119.325 26.6134 120.254 26.3464 121.298 25.9579V27.3781ZM121.298 27.9971V32.9495C121.492 33.1559 121.741 33.3258 122.044 33.4593C122.36 33.5928 122.663 33.6596 122.955 33.6596C123.683 33.6596 124.266 33.3622 124.703 32.7674C125.14 32.1605 125.358 31.3533 125.358 30.3459C125.358 29.387 125.127 28.6405 124.666 28.1064C124.205 27.5602 123.647 27.2871 122.991 27.2871C122.481 27.2871 121.917 27.5238 121.298 27.9971ZM137.058 26.3585V26.8137C136.488 26.8622 136.136 26.9533 136.002 27.0868C135.881 27.2082 135.82 27.4934 135.82 27.9425V32.6036C135.82 33.1134 135.881 33.435 136.002 33.5685C136.136 33.7021 136.488 33.7931 137.058 33.8417V34.3333H133.217V33.8417C133.69 33.7931 133.981 33.7021 134.091 33.5685C134.212 33.435 134.273 33.1194 134.273 32.6218V30.0728C134.273 29.3202 134.297 28.4948 134.346 27.5966H134.309L131.159 33.6414C131.05 33.8477 130.995 34.0359 130.995 34.2058V34.3333H128.046V33.8417C128.604 33.7931 128.944 33.696 129.065 33.5503C129.187 33.4047 129.248 33.0527 129.248 32.4943V28.1064C129.248 27.5723 129.187 27.2385 129.065 27.105C128.944 26.9593 128.604 26.8622 128.046 26.8137V26.3585H131.924V26.8137C131.402 26.8622 131.08 26.9593 130.959 27.105C130.85 27.2385 130.795 27.5662 130.795 28.0882V30.1456C130.795 31.1409 130.771 32.0998 130.722 33.0223H130.759L133.981 26.8865C134.054 26.7044 134.091 26.5709 134.091 26.4859V26.3585H137.058ZM147.156 34.3333H143.369V33.8417C143.842 33.7931 144.133 33.696 144.242 33.5503C144.352 33.4047 144.406 33.0527 144.406 32.4943V30.4551H141.056V32.4943C141.056 33.0648 141.105 33.4229 141.202 33.5685C141.311 33.7021 141.59 33.7931 142.039 33.8417V34.3333H138.271V33.8417C138.817 33.7931 139.151 33.7021 139.272 33.5685C139.393 33.435 139.454 33.077 139.454 32.4943V28.07C139.454 27.548 139.393 27.2264 139.272 27.105C139.151 26.9715 138.805 26.8804 138.234 26.8319V26.3585H142.021V26.8319C141.584 26.8804 141.311 26.9715 141.202 27.105C141.105 27.2385 141.056 27.5602 141.056 28.07V29.745H144.406V28.0518C144.406 27.542 144.352 27.2264 144.242 27.105C144.133 26.9715 143.836 26.8804 143.35 26.8319V26.3585H147.101V26.8319C146.603 26.8804 146.294 26.9715 146.172 27.105C146.063 27.2264 146.009 27.542 146.009 28.0518V32.5125C146.009 33.0709 146.069 33.4229 146.191 33.5685C146.312 33.7021 146.634 33.7931 147.156 33.8417V34.3333ZM157.399 26.3585V26.8137C156.829 26.8622 156.477 26.9533 156.343 27.0868C156.222 27.2082 156.161 27.4934 156.161 27.9425V32.6036C156.161 33.1134 156.222 33.435 156.343 33.5685C156.477 33.7021 156.829 33.7931 157.399 33.8417V34.3333H153.558V33.8417C154.031 33.7931 154.322 33.7021 154.432 33.5685C154.553 33.435 154.614 33.1194 154.614 32.6218V30.0728C154.614 29.3202 154.638 28.4948 154.686 27.5966H154.65L151.5 33.6414C151.391 33.8477 151.336 34.0359 151.336 34.2058V34.3333H148.387V33.8417C148.945 33.7931 149.285 33.696 149.406 33.5503C149.528 33.4047 149.588 33.0527 149.588 32.4943V28.1064C149.588 27.5723 149.528 27.2385 149.406 27.105C149.285 26.9593 148.945 26.8622 148.387 26.8137V26.3585H152.265V26.8137C151.743 26.8622 151.421 26.9593 151.3 27.105C151.191 27.2385 151.136 27.5662 151.136 28.0882V30.1456C151.136 31.1409 151.112 32.0998 151.063 33.0223H151.1L154.322 26.8865C154.395 26.7044 154.432 26.5709 154.432 26.4859V26.3585H157.399ZM167.497 34.3333H163.709V33.8417C164.183 33.7931 164.474 33.696 164.583 33.5503C164.693 33.4047 164.747 33.0527 164.747 32.4943V30.4551H161.397V32.4943C161.397 33.0648 161.446 33.4229 161.543 33.5685C161.652 33.7021 161.931 33.7931 162.38 33.8417V34.3333H158.611V33.8417C159.158 33.7931 159.491 33.7021 159.613 33.5685C159.734 33.435 159.795 33.077 159.795 32.4943V28.07C159.795 27.548 159.734 27.2264 159.613 27.105C159.491 26.9715 159.145 26.8804 158.575 26.8319V26.3585H162.362V26.8319C161.925 26.8804 161.652 26.9715 161.543 27.105C161.446 27.2385 161.397 27.5602 161.397 28.07V29.745H164.747V28.0518C164.747 27.542 164.693 27.2264 164.583 27.105C164.474 26.9715 164.177 26.8804 163.691 26.8319V26.3585H167.442V26.8319C166.944 26.8804 166.635 26.9715 166.513 27.105C166.404 27.2264 166.349 27.542 166.349 28.0518V32.5125C166.349 33.0709 166.41 33.4229 166.532 33.5685C166.653 33.7021 166.975 33.7931 167.497 33.8417V34.3333ZM175.193 32.2758L175.521 32.6764C175.096 33.2348 174.605 33.6899 174.046 34.0419C173.488 34.3818 172.948 34.5517 172.426 34.5517C171.309 34.5517 170.411 34.1755 169.731 33.4229C169.051 32.6703 168.712 31.7782 168.712 30.7464C168.712 29.3263 169.325 28.1428 170.55 27.196C171.461 26.492 172.389 26.14 173.336 26.14H173.354C174.046 26.14 174.586 26.2978 174.975 26.6134C175.169 26.7833 175.266 26.9775 175.266 27.196C175.266 27.3902 175.187 27.5784 175.029 27.7604C174.884 27.9304 174.75 28.0154 174.629 28.0154C174.532 28.0154 174.416 27.9486 174.283 27.8151C173.725 27.2931 173.112 27.0322 172.444 27.0322C171.849 27.0322 171.346 27.281 170.933 27.7787C170.532 28.2763 170.332 28.9864 170.332 29.9089C170.332 30.4915 170.423 31.0135 170.605 31.4747C170.799 31.9238 171.036 32.2698 171.315 32.5125C171.607 32.7553 171.898 32.9374 172.189 33.0587C172.493 33.1801 172.778 33.2408 173.045 33.2408C173.785 33.2408 174.501 32.9192 175.193 32.2758ZM184.731 34.3333H183.457C183.044 34.3333 182.692 34.2665 182.401 34.133C182.121 33.9995 181.854 33.7203 181.6 33.2954C181.478 33.0891 181.126 32.3972 180.544 31.2198C180.386 30.8921 180.198 30.6675 179.979 30.5462C179.761 30.4248 179.469 30.3701 179.105 30.3823V32.64C179.105 33.1134 179.166 33.4229 179.287 33.5685C179.421 33.7021 179.755 33.7931 180.289 33.8417V34.3333H176.356V33.8417C176.89 33.7931 177.218 33.7021 177.339 33.5685C177.473 33.4229 177.539 33.1134 177.539 32.64V28.0336C177.539 27.548 177.479 27.2446 177.357 27.1232C177.248 26.9897 176.932 26.8986 176.41 26.8501V26.3585H180.179V26.8501C179.694 26.8986 179.39 26.9897 179.269 27.1232C179.16 27.2446 179.105 27.548 179.105 28.0336V29.8179C179.627 29.7936 180.076 29.6054 180.452 29.2534C180.659 29.0471 181.084 28.4463 181.727 27.4509C182.273 26.5891 182.844 26.1582 183.438 26.1582C183.693 26.1582 183.894 26.225 184.039 26.3585C184.197 26.4799 184.276 26.6316 184.276 26.8137C184.276 27.1778 184.058 27.3599 183.621 27.3599H183.311C183.008 27.3599 182.747 27.457 182.528 27.6512C182.31 27.8454 182.061 28.1489 181.782 28.5616C181.466 29.0714 181.114 29.4659 180.726 29.745V29.8179C181.26 29.9878 181.685 30.2913 182 30.7282C182.121 30.9103 182.473 31.499 183.056 32.4943C183.36 33.0041 183.621 33.3501 183.839 33.5321C184.07 33.7142 184.367 33.8174 184.731 33.8417V34.3333ZM192.94 33.605L191.32 34.5517C190.968 34.5517 190.67 34.4304 190.427 34.1876C190.221 33.9812 190.069 33.7203 189.972 33.4047C189.936 33.429 189.833 33.5018 189.663 33.6232C189.505 33.7324 189.39 33.8113 189.317 33.8599C189.256 33.8963 189.153 33.963 189.007 34.0601C188.874 34.1572 188.765 34.224 188.68 34.2604C188.607 34.2968 188.516 34.3393 188.406 34.3879C188.297 34.4486 188.2 34.491 188.115 34.5153C188.03 34.5396 187.951 34.5517 187.878 34.5517C187.235 34.5517 186.701 34.3272 186.276 33.8781C185.851 33.4168 185.639 32.8949 185.639 32.3123C185.639 31.4626 186.125 30.8678 187.096 30.5279C188.698 29.9696 189.645 29.569 189.936 29.3263V28.9803C189.936 28.3491 189.802 27.8576 189.535 27.5055C189.28 27.1414 188.928 26.9593 188.479 26.9593C188.152 26.9593 187.891 27.0746 187.696 27.3053C187.49 27.548 187.314 27.9547 187.168 28.5252C187.083 28.8286 186.889 28.9803 186.586 28.9803C186.392 28.9803 186.197 28.9014 186.003 28.7436C185.821 28.5737 185.73 28.3856 185.73 28.1792C185.73 27.9607 185.93 27.7058 186.331 27.4145C186.646 27.1839 187.071 26.9411 187.605 26.6862C188.139 26.4192 188.637 26.2371 189.098 26.14C189.717 26.14 190.233 26.3039 190.646 26.6316C191.204 27.0929 191.484 27.8515 191.484 28.9075V32.2212C191.484 32.9374 191.696 33.2954 192.121 33.2954C192.339 33.2954 192.552 33.2348 192.758 33.1134L192.94 33.605ZM189.936 32.8221V29.9635L188.406 30.6918C188.042 30.8739 187.775 31.062 187.605 31.2562C187.435 31.4504 187.35 31.7053 187.35 32.0209C187.35 32.4579 187.478 32.7978 187.733 33.0405C188 33.2833 188.291 33.4047 188.607 33.4047C189.08 33.4047 189.523 33.2105 189.936 32.8221ZM201.686 34.3333H197.826V33.8417C198.336 33.7931 198.645 33.7021 198.754 33.5685C198.876 33.435 198.936 33.083 198.936 32.5125V30.8375H198.372C197.765 30.8375 197.34 31.0195 197.097 31.3837C196.988 31.5536 196.703 32.1423 196.242 33.1498C195.89 33.9388 195.368 34.3333 194.676 34.3333H193.219V33.8417C193.729 33.7688 194.069 33.6353 194.239 33.4411C194.324 33.3319 194.561 32.901 194.949 32.1484C195.143 31.7357 195.374 31.4019 195.641 31.147C195.92 30.88 196.296 30.6918 196.77 30.5826V30.5462C195.313 30.2791 194.585 29.5872 194.585 28.4705C194.585 27.7665 194.864 27.2385 195.422 26.8865C195.981 26.5345 196.727 26.3585 197.662 26.3585H201.667V26.8319C201.133 26.8804 200.806 26.9715 200.684 27.105C200.563 27.2385 200.502 27.5844 200.502 28.1428V32.5125C200.502 33.0709 200.563 33.4229 200.684 33.5685C200.818 33.7142 201.152 33.8052 201.686 33.8417V34.3333ZM198.936 30.2366V27.542C198.936 27.2992 198.876 27.1414 198.754 27.0686C198.633 26.9836 198.402 26.9411 198.062 26.9411C197.504 26.9411 197.061 27.0868 196.733 27.3781C196.418 27.6573 196.26 28.0639 196.26 28.598C196.26 29.1685 196.484 29.5994 196.934 29.8907C197.286 30.1213 197.783 30.2366 198.427 30.2366H198.936Z" fill="#8F3299"/>
</svg>
