<svg width="278" height="104" viewBox="0 0 278 104" fill="none" xmlns="http://www.w3.org/2000/svg">
<path d="M45.0508 103.053C37.7071 103.053 31.1387 101.912 25.3458 99.6316C19.5529 97.3053 14.6495 93.8387 10.6355 89.2318C6.62156 84.5792 3.61108 78.8091 1.6041 71.9215L17.7512 67.8847C19.5758 73.7232 22.7915 78.467 27.3984 82.1161C32.0054 85.7651 37.5474 87.5669 44.0245 87.5213C48.5402 87.43 52.8051 86.5406 56.819 84.8529C60.8786 83.1652 64.1856 80.5652 66.7399 77.053C68.7925 74.453 70.2978 71.6706 71.2557 68.7058C72.2135 65.6953 72.8749 62.5936 73.2398 59.4006H38.3456V43.9377H73.3767C72.6469 38.3729 71.0504 33.4923 68.5873 29.2958C66.1242 25.0538 62.8172 21.7696 58.6664 19.4434C54.5612 17.0715 49.6806 15.9311 44.0245 16.0224C37.2737 16.068 31.5721 17.9381 26.9195 21.6328C22.2669 25.3275 19.0968 30.3221 17.4091 36.6168L0.919897 34.2905C3.38302 23.5258 8.4461 15.2013 16.1091 9.3172C23.7722 3.38747 33.4194 0.422601 45.0508 0.422601C54.584 0.422601 62.7716 2.58923 69.6136 6.92249C76.5012 11.2102 81.7923 17.2083 85.487 24.917C89.2273 32.6256 91.1203 41.5658 91.1659 51.7376C91.2115 61.3164 89.4098 69.9829 85.7607 77.7372C82.1116 85.4915 76.8205 91.6493 69.8873 96.2106C62.9996 100.772 54.7208 103.053 45.0508 103.053ZM104.881 101V2.4752H121.37V48.1798L160.712 2.4752H180.964L138.612 50.7797L183.838 101H162.901L121.37 55.0218V101H104.881ZM229.936 103.053C220.083 103.053 211.645 100.909 204.62 96.6211C197.596 92.2879 192.19 86.2669 188.405 78.5582C184.664 70.8496 182.794 61.9094 182.794 51.7376C182.794 41.5658 184.664 32.6256 188.405 24.917C192.19 17.2083 197.596 11.2102 204.62 6.92249C211.645 2.58923 220.083 0.422601 229.936 0.422601C239.788 0.422601 248.226 2.58923 255.251 6.92249C262.321 11.2102 267.726 17.2083 271.466 24.917C275.252 32.6256 277.145 41.5658 277.145 51.7376C277.145 61.9094 275.252 70.8496 271.466 78.5582C267.726 86.2669 262.321 92.2879 255.251 96.6211C248.226 100.909 239.788 103.053 229.936 103.053ZM229.936 87.5213C236.549 87.5669 242.046 86.1072 246.425 83.1424C250.849 80.1775 254.156 76.0039 256.346 70.6215C258.581 65.2391 259.698 58.9445 259.698 51.7376C259.698 44.5307 258.581 38.2817 256.346 32.9905C254.156 27.6538 250.849 23.5029 246.425 20.5381C242.046 17.5732 236.549 16.0452 229.936 15.9539C223.322 15.9083 217.825 17.368 213.446 20.3328C209.067 23.2977 205.76 27.4713 203.525 32.8537C201.336 38.2361 200.241 44.5307 200.241 51.7376C200.241 58.9445 201.336 65.2163 203.525 70.5531C205.715 75.8442 208.999 79.9723 213.378 82.9371C217.802 85.902 223.322 87.43 229.936 87.5213Z" fill="#7E39A8"/>
<path d="M45.0508 103.053C37.7071 103.053 31.1387 101.912 25.3458 99.6316C19.5529 97.3053 14.6495 93.8387 10.6355 89.2318C6.62156 84.5792 3.61108 78.8091 1.6041 71.9215L17.7512 67.8847C19.5758 73.7232 22.7915 78.467 27.3984 82.1161C32.0054 85.7651 37.5474 87.5669 44.0245 87.5213C48.5402 87.43 52.8051 86.5406 56.819 84.8529C60.8786 83.1652 64.1856 80.5652 66.7399 77.053C68.7925 74.453 70.2978 71.6706 71.2557 68.7058C72.2135 65.6953 72.8749 62.5936 73.2398 59.4006H38.3456V43.9377H73.3767C72.6469 38.3729 71.0504 33.4923 68.5873 29.2958C66.1242 25.0538 62.8172 21.7696 58.6664 19.4434C54.5612 17.0715 49.6806 15.9311 44.0245 16.0224C37.2737 16.068 31.5721 17.9381 26.9195 21.6328C22.2669 25.3275 19.0968 30.3221 17.4091 36.6168L0.919897 34.2905C3.38302 23.5258 8.4461 15.2013 16.1091 9.3172C23.7722 3.38747 33.4194 0.422601 45.0508 0.422601C54.584 0.422601 62.7716 2.58923 69.6136 6.92249C76.5012 11.2102 81.7923 17.2083 85.487 24.917C89.2273 32.6256 91.1203 41.5658 91.1659 51.7376C91.2115 61.3164 89.4098 69.9829 85.7607 77.7372C82.1116 85.4915 76.8205 91.6493 69.8873 96.2106C62.9996 100.772 54.7208 103.053 45.0508 103.053ZM104.881 101V2.4752H121.37V48.1798L160.712 2.4752H180.964L138.612 50.7797L183.838 101H162.901L121.37 55.0218V101H104.881ZM229.936 103.053C220.083 103.053 211.645 100.909 204.62 96.6211C197.596 92.2879 192.19 86.2669 188.405 78.5582C184.664 70.8496 182.794 61.9094 182.794 51.7376C182.794 41.5658 184.664 32.6256 188.405 24.917C192.19 17.2083 197.596 11.2102 204.62 6.92249C211.645 2.58923 220.083 0.422601 229.936 0.422601C239.788 0.422601 248.226 2.58923 255.251 6.92249C262.321 11.2102 267.726 17.2083 271.466 24.917C275.252 32.6256 277.145 41.5658 277.145 51.7376C277.145 61.9094 275.252 70.8496 271.466 78.5582C267.726 86.2669 262.321 92.2879 255.251 96.6211C248.226 100.909 239.788 103.053 229.936 103.053ZM229.936 87.5213C236.549 87.5669 242.046 86.1072 246.425 83.1424C250.849 80.1775 254.156 76.0039 256.346 70.6215C258.581 65.2391 259.698 58.9445 259.698 51.7376C259.698 44.5307 258.581 38.2817 256.346 32.9905C254.156 27.6538 250.849 23.5029 246.425 20.5381C242.046 17.5732 236.549 16.0452 229.936 15.9539C223.322 15.9083 217.825 17.368 213.446 20.3328C209.067 23.2977 205.76 27.4713 203.525 32.8537C201.336 38.2361 200.241 44.5307 200.241 51.7376C200.241 58.9445 201.336 65.2163 203.525 70.5531C205.715 75.8442 208.999 79.9723 213.378 82.9371C217.802 85.902 223.322 87.43 229.936 87.5213Z" fill="url(#paint0_linear_23_65)"/>
<defs>
<linearGradient id="paint0_linear_23_65" x1="7.65455" y1="58.2787" x2="177.56" y2="-63.0256" gradientUnits="userSpaceOnUse">
<stop stop-color="#AB52CE"/>
<stop offset="1" stop-color="#FE8687"/>
</linearGradient>
</defs>
</svg>
