<svg width="209" height="64" viewBox="0 0 209 64" fill="none" xmlns="http://www.w3.org/2000/svg">
<path d="M19.2005 20V19.1327C17.7649 18.9832 16.9275 18.6243 15.9107 16.7401C14.9536 14.9756 14.1461 13.3606 13.6078 12.4036C12.6209 10.6689 11.4844 9.98107 10.0189 9.56237V9.47265C10.5274 9.20348 11.7835 8.4558 12.9199 6.15294C14.3256 3.31175 14.9835 2.29491 16.2396 2.29491H16.8976C17.5257 2.265 18.1238 1.93602 18.1238 1.36778C18.1238 0.70982 17.5257 0.111676 16.4789 0.111676C15.1331 0.141583 13.9966 0.978986 12.9498 3.28184C11.8433 5.76415 11.275 7.08007 10.3479 7.94738C9.36097 8.90441 8.52357 9.14367 6.54969 9.17357V4.20897C6.54969 1.78648 6.78895 1.60704 9.0619 1.42759V0.560284H1.2262V1.42759C3.49915 1.60704 3.73841 1.78648 3.73841 4.20897V16.2018C3.73841 18.7738 3.49915 18.9532 1.2262 19.1327V20H9.0619V19.1327C6.78895 18.9532 6.54969 18.7738 6.54969 16.1719V10.1904C8.49366 10.1605 9.66004 10.4895 10.8264 13.0017C11.6339 14.6466 12.4713 16.3812 12.89 17.2485C13.7573 19.043 14.5947 20 16.5387 20H19.2005ZM33.5926 6.90062H21.6596V7.67821C23.813 7.91747 23.9027 8.24645 23.9027 9.50255C23.9027 12.1344 23.3344 14.4672 22.6765 16.0223C22.1082 17.3682 21.1512 18.7738 20.1643 19.6112V20.1196C20.4633 20.2692 20.9419 20.3888 21.4802 20.3888C21.8989 20.3888 22.3475 20.1196 22.8559 19.4019C23.783 18.056 25.1887 15.0055 25.3083 9.17357C25.3382 8.18663 25.4578 7.97728 26.4149 7.97728H27.8803C28.8374 7.97728 28.9271 8.21654 28.9271 9.2633V16.9794C28.9271 18.7738 28.8075 19.0131 26.8934 19.1925V20H33.5926V19.1925C31.6786 19.0131 31.5589 18.7738 31.5589 16.9495V9.77172C31.5589 8.12682 31.6487 7.88756 33.5926 7.67821V6.90062ZM50.2837 6.90062H45.4088V7.10997C45.4088 7.25951 45.349 7.46886 45.1994 7.76793L39.9059 17.8467H39.846C39.9657 15.5737 39.9657 14.1382 39.9657 13.1213V9.74181C39.9657 8.0371 40.0853 7.82775 41.8199 7.6483V6.90062H35.4796V7.6483C37.3338 7.82775 37.4236 8.0371 37.4236 9.77172V16.9794C37.4236 18.7738 37.3039 19.0131 35.4497 19.1925V20H40.3246V19.7906C40.3246 19.5215 40.4143 19.1925 40.5638 18.8635L45.7677 8.93432H45.8275C45.7079 11.1475 45.7079 12.1942 45.7079 13.0017V17.1887C45.7079 18.8037 45.5284 19.0131 43.9732 19.1925V20H50.2538V19.1925C48.3696 19.0131 48.2201 18.8037 48.2201 17.1588V9.50255C48.2201 8.0371 48.3696 7.82775 50.2837 7.6483V6.90062ZM66.8394 20V19.1925C65.1048 19.043 64.9553 18.8336 64.9553 17.0093V9.682C64.9553 8.00719 65.0749 7.79784 66.7497 7.67821V6.90062H60.5888V7.67821C62.2038 7.79784 62.3234 8.0371 62.3234 9.65209V12.4634H56.8205V9.7119C56.8205 8.0371 56.97 7.79784 58.4056 7.67821V6.90062H52.2148V7.67821C54.0989 7.82775 54.1887 8.0371 54.1887 9.682V16.9794C54.1887 18.8635 54.069 19.043 52.2746 19.1925V20H58.4355V19.1925C56.97 19.043 56.8205 18.8635 56.8205 16.9794V13.6298H62.3234V16.9794C62.3234 18.8037 62.1739 19.043 60.6187 19.1925V20H66.8394ZM83.6957 6.90062H78.8208V7.10997C78.8208 7.25951 78.761 7.46886 78.6114 7.76793L73.3179 17.8467H73.258C73.3777 15.5737 73.3777 14.1382 73.3777 13.1213V9.74181C73.3777 8.0371 73.4973 7.82775 75.2319 7.6483V6.90062H68.8916V7.6483C70.7458 7.82775 70.8356 8.0371 70.8356 9.77172V16.9794C70.8356 18.7738 70.7159 19.0131 68.8617 19.1925V20H73.7366V19.7906C73.7366 19.5215 73.8263 19.1925 73.9758 18.8635L79.1797 8.93432H79.2395C79.1199 11.1475 79.1199 12.1942 79.1199 13.0017V17.1887C79.1199 18.8037 78.9404 19.0131 77.3852 19.1925V20H83.6658V19.1925C81.7816 19.0131 81.6321 18.8037 81.6321 17.1588V9.50255C81.6321 8.0371 81.7816 7.82775 83.6957 7.6483V6.90062ZM99.3841 20V19.1925C98.1579 19.1028 97.6196 18.5944 96.6327 16.9794C95.7654 15.484 95.3766 14.7662 94.8981 14.0784C94.27 13.1811 93.3728 12.7624 92.8045 12.583V12.4634C93.3728 12.0447 94.0307 11.3269 94.5392 10.5493C95.3168 9.38292 95.9747 8.54552 97.0514 8.54552H97.5598C98.3374 8.54552 98.6365 8.18663 98.6365 7.6184C98.6365 7.05016 98.128 6.57164 97.2607 6.57164C96.0046 6.57164 95.0476 7.79784 94.4494 8.69506C93.8513 9.62218 93.0139 10.9979 92.3559 11.6559C91.6083 12.3736 90.9802 12.5531 90.1428 12.583V9.65209C90.1428 8.06701 90.2923 7.85765 91.9372 7.70812V6.90062H85.7165V7.70812C87.4511 7.85765 87.5708 8.0371 87.5708 9.65209V17.2186C87.5708 18.7439 87.4212 19.0131 85.6268 19.1925V20H92.0868V19.1925C90.2923 19.0131 90.1428 18.7439 90.1428 17.2186V13.5101C91.3391 13.4802 91.9671 13.8092 92.5055 14.8859C92.9242 15.7233 93.5223 17.0093 94.2401 18.2654C95.1373 19.8206 96.1242 20 97.2906 20H99.3841ZM112.898 18.8037L112.599 17.9962C112.3 18.1458 111.881 18.2953 111.522 18.2953C111.014 18.2953 110.505 17.8766 110.505 16.5308V11.0876C110.505 9.47265 110.206 8.24645 109.1 7.34923C108.442 6.8109 107.515 6.54174 106.588 6.54174C104.883 6.87072 102.879 8.00719 102.012 8.63524C101.414 9.08385 101.025 9.41283 101.025 9.89135C101.025 10.6091 101.862 11.2073 102.43 11.2073C102.909 11.2073 103.238 10.9979 103.388 10.4596C103.627 9.53246 103.896 8.8745 104.255 8.4558C104.554 8.09691 105.002 7.88756 105.541 7.88756C106.976 7.88756 107.933 9.08385 107.933 11.1774V11.7755C107.275 12.3138 105.062 13.1213 103.268 13.7494C101.653 14.2877 100.875 15.1849 100.875 16.6803C100.875 18.5345 102.371 20.3589 104.554 20.3589C105.391 20.3589 106.827 19.2822 108.023 18.4747C108.143 18.9532 108.352 19.3719 108.741 19.7607C109.07 20.0897 109.698 20.3589 110.206 20.3589L112.898 18.8037ZM107.933 17.5177C107.395 18.0261 106.468 18.4747 105.75 18.4747C104.853 18.4747 103.687 17.757 103.687 16.2018C103.687 15.0952 104.315 14.5569 105.421 14.0185C106.079 13.7195 107.305 13.1512 107.933 12.8223V17.5177ZM15.5518 51.0952C15.1032 52.2915 14.5648 53.3083 14.0265 53.9364C13.3685 54.6841 12.5012 54.9233 10.3479 54.9233C8.91236 54.9233 7.86561 54.9233 7.29737 54.5645C6.75904 54.2056 6.5796 53.5177 6.5796 52.1121V46.5792H9.27125C11.8732 46.5792 12.1124 46.7587 12.5012 48.8821H13.3984V43.11H12.5012C12.1423 45.1138 11.933 45.353 9.27125 45.353H6.5796V38.6239C6.5796 37.7267 6.66932 37.6369 7.62635 37.6369H9.74976C11.8134 37.6369 12.6209 37.8463 13.0695 38.5043C13.4583 39.1024 13.7872 39.8202 14.0564 41.0464L14.9835 40.8968C14.8639 39.3118 14.7144 37.2781 14.7144 36.5603H1.2561V37.4276C3.52906 37.6369 3.79822 37.7566 3.79822 40.4183V52.2317C3.79822 54.6841 3.52906 54.9233 0.837403 55.1327V56H15.4321C15.6714 55.0729 16.2995 52.2915 16.449 51.2447L15.5518 51.0952ZM31.8008 56V55.1925C30.5746 55.1028 30.0362 54.5944 29.0493 52.9794C28.182 51.484 27.7932 50.7662 27.3147 50.0784C26.6866 49.1811 25.7894 48.7624 25.2212 48.583V48.4634C25.7894 48.0447 26.4474 47.3269 26.9558 46.5493C27.7334 45.3829 28.3913 44.5455 29.468 44.5455H29.9764C30.754 44.5455 31.0531 44.1866 31.0531 43.6184C31.0531 43.0502 30.5447 42.5716 29.6773 42.5716C28.4212 42.5716 27.4642 43.7978 26.8661 44.6951C26.2679 45.6222 25.4305 46.9979 24.7726 47.6559C24.0249 48.3736 23.3968 48.5531 22.5594 48.583V45.6521C22.5594 44.067 22.709 43.8577 24.3539 43.7081V42.9006H18.1331V43.7081C19.8678 43.8577 19.9874 44.0371 19.9874 45.6521V53.2186C19.9874 54.7439 19.8379 55.0131 18.0434 55.1925V56H24.5034V55.1925C22.709 55.0131 22.5594 54.7439 22.5594 53.2186V49.5101C23.7557 49.4802 24.3838 49.8092 24.9221 50.8859C25.3408 51.7233 25.9389 53.0093 26.6567 54.2654C27.5539 55.8206 28.5409 56 29.7072 56H31.8008ZM45.3146 54.8037L45.0156 53.9962C44.7165 54.1458 44.2978 54.2953 43.9389 54.2953C43.4305 54.2953 42.922 53.8766 42.922 52.5308V47.0876C42.922 45.4726 42.623 44.2464 41.5164 43.3492C40.8584 42.8109 39.9313 42.5417 39.0042 42.5417C37.2995 42.8707 35.2957 44.0072 34.4284 44.6352C33.8302 45.0839 33.4414 45.4128 33.4414 45.8913C33.4414 46.6091 34.2789 47.2073 34.8471 47.2073C35.3256 47.2073 35.6546 46.9979 35.8041 46.4596C36.0434 45.5325 36.3125 44.8745 36.6714 44.4558C36.9705 44.0969 37.4191 43.8876 37.9574 43.8876C39.393 43.8876 40.35 45.0839 40.35 47.1774V47.7755C39.6921 48.3138 37.4789 49.1213 35.6845 49.7494C34.0695 50.2877 33.2919 51.1849 33.2919 52.6803C33.2919 54.5345 34.7873 56.3589 36.9705 56.3589C37.8079 56.3589 39.2435 55.2822 40.4397 54.4747C40.5594 54.9532 40.7687 55.3719 41.1575 55.7607C41.4865 56.0897 42.1146 56.3589 42.623 56.3589L45.3146 54.8037ZM40.35 53.5177C39.8117 54.0261 38.8846 54.4747 38.1668 54.4747C37.2696 54.4747 36.1032 53.757 36.1032 52.2018C36.1032 51.0952 36.7312 50.5569 37.8378 50.0185C38.4958 49.7195 39.722 49.1512 40.35 48.8223V53.5177ZM57.6834 46.6689C57.6535 45.353 57.6236 43.8876 57.6236 42.9006H46.0794C46.0196 43.8876 45.9597 45.353 45.8401 46.6689L46.6775 46.7587C46.9168 45.7717 47.1261 45.2334 47.3953 44.6951C47.6944 44.067 48.2327 43.8876 49.1299 43.8876H50.4757V53.1289C50.4757 54.7738 50.3561 55.0131 48.3523 55.1925V56H55.2908V55.1925C53.2571 55.0131 53.1076 54.7738 53.1076 53.1289V43.8876H54.3637C55.3805 43.8876 55.8889 44.0969 56.2179 44.6652C56.4871 45.1736 56.6366 45.8315 56.846 46.7587L57.6834 46.6689ZM69.8087 52.7401C68.732 53.727 67.5955 54.2056 66.3992 54.2056C64.3057 54.2056 62.0627 52.5308 62.0029 48.6129C65.4721 48.4933 69.2105 48.1942 69.689 48.1344C70.2872 48.0148 70.4068 47.7456 70.4068 47.1475C70.4367 44.7848 68.403 42.5417 65.8609 42.5417H65.831C64.3057 42.5417 62.6907 43.3492 61.4346 44.725C60.2084 46.0409 59.4309 47.8951 59.4309 49.9886C59.4309 53.3682 61.5842 56.3589 65.3226 56.3589C66.3095 56.3589 68.403 55.8206 70.2872 53.3981L69.8087 52.7401ZM65.173 43.6483C66.7282 43.6483 67.6853 45.1138 67.6553 46.6689C67.6553 47.1175 67.4759 47.2671 66.9675 47.2671C65.3226 47.3269 63.7674 47.3568 62.1823 47.3568C62.5711 44.9343 63.8571 43.6483 65.1431 43.6483H65.173ZM76.4109 44.5754V42.2427C74.8857 42.8109 73.1809 43.3193 71.8351 43.5586V44.3063C73.6296 44.5156 73.7791 44.6053 73.7791 46.4895V60.0076C73.7791 61.9216 73.5398 62.1011 71.6258 62.2805V63.1179H78.9231V62.2805C76.6203 62.1011 76.4109 61.9216 76.4109 59.7683V55.8505C76.7997 56.0598 77.5773 56.329 78.4147 56.3589C82.3027 55.6112 85.8616 52.7102 85.8616 48.2241C85.8616 45.2932 83.8877 42.5417 80.5381 42.5417C80.1493 42.5417 79.5811 42.6913 79.0428 43.0203L76.4109 44.5754ZM76.4109 45.5923C77.1586 45.024 78.2951 44.4259 79.1923 44.4259C81.226 44.4259 83.0802 46.1306 83.0802 49.4204C83.0802 52.77 81.4952 54.8934 79.1325 54.8934C78.1755 54.8934 77.039 54.385 76.4109 53.727V45.5923ZM102.329 42.9006H97.4544V43.11C97.4544 43.2595 97.3946 43.4689 97.2451 43.7679L91.9515 53.8467H91.8917C92.0113 51.5737 92.0113 50.1382 92.0113 49.1213V45.7418C92.0113 44.0371 92.1309 43.8277 93.8655 43.6483V42.9006H87.5252V43.6483C89.3795 43.8277 89.4692 44.0371 89.4692 45.7717V52.9794C89.4692 54.7738 89.3496 55.0131 87.4953 55.1925V56H92.3702V55.7906C92.3702 55.5215 92.4599 55.1925 92.6094 54.8635L97.8133 44.9343H97.8731C97.7535 47.1475 97.7535 48.1942 97.7535 49.0017V53.1887C97.7535 54.8037 97.574 55.0131 96.0189 55.1925V56H102.299V55.1925C100.415 55.0131 100.266 54.8037 100.266 53.1588V45.5026C100.266 44.0371 100.415 43.8277 102.329 43.6483V42.9006ZM118.885 56V55.1925C117.15 55.043 117.001 54.8336 117.001 53.0093V45.682C117.001 44.0072 117.121 43.7978 118.795 43.6782V42.9006H112.634V43.6782C114.249 43.7978 114.369 44.0371 114.369 45.6521V48.4634H108.866V45.7119C108.866 44.0371 109.016 43.7978 110.451 43.6782V42.9006H104.26V43.6782C106.145 43.8277 106.234 44.0371 106.234 45.682V52.9794C106.234 54.8635 106.115 55.043 104.32 55.1925V56H110.481V55.1925C109.016 55.043 108.866 54.8635 108.866 52.9794V49.6298H114.369V52.9794C114.369 54.8037 114.22 55.043 112.664 55.1925V56H118.885ZM135.741 42.9006H130.866V43.11C130.866 43.2595 130.807 43.4689 130.657 43.7679L125.363 53.8467H125.304C125.423 51.5737 125.423 50.1382 125.423 49.1213V45.7418C125.423 44.0371 125.543 43.8277 127.278 43.6483V42.9006H120.937V43.6483C122.791 43.8277 122.881 44.0371 122.881 45.7717V52.9794C122.881 54.7738 122.762 55.0131 120.907 55.1925V56H125.782V55.7906C125.782 55.5215 125.872 55.1925 126.021 54.8635L131.225 44.9343H131.285C131.166 47.1475 131.166 48.1942 131.166 49.0017V53.1887C131.166 54.8037 130.986 55.0131 129.431 55.1925V56H135.711V55.1925C133.827 55.0131 133.678 54.8037 133.678 53.1588V45.5026C133.678 44.0371 133.827 43.8277 135.741 43.6483V42.9006ZM152.297 56V55.1925C150.562 55.043 150.413 54.8336 150.413 53.0093V45.682C150.413 44.0072 150.533 43.7978 152.207 43.6782V42.9006H146.046V43.6782C147.661 43.7978 147.781 44.0371 147.781 45.6521V48.4634H142.278V45.7119C142.278 44.0371 142.428 43.7978 143.863 43.6782V42.9006H137.672V43.6782C139.557 43.8277 139.646 44.0371 139.646 45.682V52.9794C139.646 54.8635 139.527 55.043 137.732 55.1925V56H143.893V55.1925C142.428 55.043 142.278 54.8635 142.278 52.9794V49.6298H147.781V52.9794C147.781 54.8037 147.632 55.043 146.076 55.1925V56H152.297ZM164.94 52.6205C163.624 53.8467 162.667 54.2056 161.411 54.2056C159.796 54.2056 156.955 52.8298 156.955 48.7026C156.955 45.5624 158.6 44.0072 160.424 44.0072C161.441 44.0072 162.458 44.396 163.445 45.2932C163.684 45.5325 163.833 45.6222 164.013 45.6222C164.372 45.6222 165.06 44.9343 165.06 44.2464C165.06 43.9175 164.97 43.6483 164.551 43.3193C164.103 42.9305 163.116 42.5417 161.919 42.5417H161.889C160.753 42.5417 158.929 43.0203 157.314 44.2764C155.34 45.7717 154.293 47.8054 154.293 50.0784C154.293 53.3083 156.536 56.3589 160.394 56.3589C162.159 56.3589 164.132 55.043 165.478 53.2784L164.94 52.6205ZM180.607 56V55.1925C179.381 55.1028 178.842 54.5944 177.855 52.9794C176.988 51.484 176.599 50.7662 176.121 50.0784C175.493 49.1811 174.595 48.7624 174.027 48.583V48.4634C174.595 48.0447 175.253 47.3269 175.762 46.5493C176.539 45.3829 177.197 44.5455 178.274 44.5455H178.783C179.56 44.5455 179.859 44.1866 179.859 43.6184C179.859 43.0502 179.351 42.5716 178.483 42.5716C177.227 42.5716 176.27 43.7978 175.672 44.6951C175.074 45.6222 174.237 46.9979 173.579 47.6559C172.831 48.3736 172.203 48.5531 171.366 48.583V45.6521C171.366 44.067 171.515 43.8577 173.16 43.7081V42.9006H166.939V43.7081C168.674 43.8577 168.793 44.0371 168.793 45.6521V53.2186C168.793 54.7439 168.644 55.0131 166.85 55.1925V56H173.309V55.1925C171.515 55.0131 171.366 54.7439 171.366 53.2186V49.5101C172.562 49.4802 173.19 49.8092 173.728 50.8859C174.147 51.7233 174.745 53.0093 175.463 54.2654C176.36 55.8206 177.347 56 178.513 56H180.607ZM194.121 54.8037L193.822 53.9962C193.523 54.1458 193.104 54.2953 192.745 54.2953C192.237 54.2953 191.728 53.8766 191.728 52.5308V47.0876C191.728 45.4726 191.429 44.2464 190.323 43.3492C189.665 42.8109 188.737 42.5417 187.81 42.5417C186.106 42.8707 184.102 44.0072 183.234 44.6352C182.636 45.0839 182.248 45.4128 182.248 45.8913C182.248 46.6091 183.085 47.2073 183.653 47.2073C184.132 47.2073 184.461 46.9979 184.61 46.4596C184.849 45.5325 185.119 44.8745 185.478 44.4558C185.777 44.0969 186.225 43.8876 186.764 43.8876C188.199 43.8876 189.156 45.0839 189.156 47.1774V47.7755C188.498 48.3138 186.285 49.1213 184.491 49.7494C182.876 50.2877 182.098 51.1849 182.098 52.6803C182.098 54.5345 183.593 56.3589 185.777 56.3589C186.614 56.3589 188.05 55.2822 189.246 54.4747C189.365 54.9532 189.575 55.3719 189.964 55.7607C190.293 56.0897 190.921 56.3589 191.429 56.3589L194.121 54.8037ZM189.156 53.5177C188.618 54.0261 187.691 54.4747 186.973 54.4747C186.076 54.4747 184.909 53.757 184.909 52.2018C184.909 51.0952 185.537 50.5569 186.644 50.0185C187.302 49.7195 188.528 49.1512 189.156 48.8223V53.5177ZM208.456 56V55.1925C206.662 55.043 206.512 54.8037 206.512 53.0093V45.8315C206.512 43.9474 206.662 43.8277 208.426 43.6782V42.9006H201.847C198.916 42.9006 196.793 43.9175 196.793 46.3699C196.793 48.1344 197.989 49.3307 200.381 49.7793V49.8391C198.647 50.2578 197.929 51.3345 197.391 52.4111C196.882 53.3981 196.583 54.0859 196.224 54.5345C195.806 55.0131 195.178 55.1028 194.549 55.1925V56H196.942C198.019 56 198.856 55.5514 199.514 54.056C200.052 52.8896 200.441 51.8429 200.92 51.155C201.309 50.5569 201.966 50.2578 203.013 50.2578H203.94V53.0093C203.94 54.8635 203.791 55.043 202.086 55.1925V56H208.456ZM203.94 49.2709H203.103C202.026 49.2709 201.279 49.1213 200.651 48.7026C199.963 48.254 199.544 47.5362 199.544 46.5792C199.544 44.7848 200.71 43.8577 202.505 43.8577C203.611 43.8577 203.94 44.067 203.94 44.8446V49.2709Z" fill="#8F3299"/>
</svg>
