<svg width="189" height="301" viewBox="0 0 189 301" fill="none" xmlns="http://www.w3.org/2000/svg">
<g opacity="0.15" clip-path="url(#clip0_12_170)">
<path d="M38.5062 0.133787C-44.4938 0.133786 -111.694 67.3338 -111.694 150.334C-111.694 233.334 -44.4939 300.134 38.5061 300.134C121.506 300.134 188.306 233.334 188.306 150.334C188.306 67.3338 121.506 0.133788 38.5062 0.133787Z" fill="url(#paint0_linear_12_170)"/>
<path d="M68.9057 24.9332C69.5057 25.7332 68.7057 26.5332 68.3057 27.1332C66.5057 29.3332 67.3057 32.5333 68.1057 35.3333C68.3057 36.1333 68.5057 36.9332 68.7057 37.5332C69.5057 41.7332 67.5057 46.5332 63.5057 50.3332C60.7057 52.9332 60.7057 56.7332 63.7057 61.1333C67.9057 67.3333 68.1057 76.5333 65.9057 82.3333C63.7057 88.5333 57.9057 94.7333 50.3057 93.1333C47.5057 92.5333 45.1057 90.7333 43.5057 88.1333C42.1057 85.7333 41.3057 82.7333 41.3057 79.3333C41.3057 76.7333 41.7057 73.9333 42.7057 71.1333C44.9057 64.1332 48.1057 61.3332 50.3057 59.3332C51.1057 58.5332 51.9057 57.9333 52.5057 57.1333C53.5057 55.7332 53.9057 54.3332 54.5057 52.5332C55.3057 49.9332 56.1057 47.1332 59.1057 45.1332C62.5057 42.7332 64.1057 40.1332 62.7057 32.9332C61.9057 29.3332 66.3057 25.1332 67.5057 24.5332C67.9057 24.3332 68.7057 24.5332 68.9057 24.9332ZM64.7057 32.5332C66.1057 39.7332 64.9057 43.5333 60.3057 46.7333C57.9057 48.3333 57.3057 50.7332 56.5057 53.1332C55.9057 54.9333 55.5057 56.7332 54.3057 58.3332C53.7057 59.3332 52.7057 60.1333 51.9057 60.9333C49.7057 62.9333 46.9057 65.3333 44.9057 71.7333C43.1057 77.5333 43.3057 83.3333 45.5057 87.1333C46.7057 89.3333 48.7057 90.7333 50.9057 91.3333C57.3057 92.7333 62.3057 87.3333 64.3057 81.9333C65.1057 79.7333 65.5057 77.1332 65.5057 74.3333C65.5057 70.3332 64.5057 65.9332 62.3057 62.5332C57.3057 55.1332 60.7057 50.7332 62.3057 49.1332C65.9057 45.9332 67.5057 41.7332 66.9057 38.1332C66.7057 37.5332 66.5057 36.7332 66.5057 35.9332C66.1057 34.1332 65.5057 32.1333 65.7057 30.3333C64.7057 30.9333 64.5057 31.7332 64.7057 32.5332Z" fill="white"/>
<path d="M95.7064 229.533C100.306 250.533 97.3064 272.533 87.1064 291.533L84.7064 296.133L81.3064 297.933L85.5064 290.733C95.5064 272.133 98.3064 250.733 93.9064 230.133C83.3064 182.333 36.3064 152.333 -11.2936 162.733C-48.2936 170.933 -75.8936 201.733 -80.0936 239.533L-80.6936 247.533L-82.2936 241.933L-82.0936 239.333C-77.8936 200.733 -49.6936 169.133 -11.8936 160.933C36.9064 150.133 85.1064 180.933 95.7064 229.533Z" fill="white"/>
<path d="M-13.2949 220.934C-13.8949 218.534 -14.0949 216.334 -14.0949 214.134C-14.0949 199.534 -3.89487 186.334 10.9051 183.134C28.1051 179.334 44.9051 190.134 48.7051 207.334C49.3051 209.734 49.5051 211.934 49.5051 214.134C49.5051 228.734 39.3051 241.934 24.5051 245.134C7.30512 248.934 -9.49488 237.934 -13.2949 220.934ZM24.1051 243.134C37.7051 240.134 47.5051 227.934 47.5051 214.134C47.5051 211.934 47.3051 209.734 46.7051 207.734C43.1051 191.734 27.3051 181.534 11.3051 185.134C-2.29487 188.134 -12.0949 200.334 -12.0949 214.134C-12.0949 216.334 -11.8949 218.534 -11.2949 220.534C-7.89488 236.534 8.10513 246.734 24.1051 243.134Z" fill="white"/>
<path d="M58.3072 122.133L46.5072 133.933L58.3072 145.733C58.7072 146.133 58.7072 146.733 58.3072 147.133C57.9072 147.533 57.3072 147.533 56.9072 147.133L45.1072 135.333L33.7072 146.733C33.3072 147.133 32.7072 147.133 32.3072 146.733C32.1072 146.533 32.1072 146.333 32.1072 145.933C32.1072 145.533 32.1072 145.333 32.3072 145.133L43.7072 133.733L32.3072 122.333C32.1072 122.133 32.1072 121.933 32.1072 121.533C32.1072 121.133 32.1072 120.933 32.3072 120.733C32.7072 120.333 33.3072 120.333 33.7072 120.733L45.1072 132.133L56.9072 120.333C57.3072 119.933 57.9072 119.933 58.3072 120.333C58.7072 120.733 58.7072 121.733 58.3072 122.133Z" fill="white"/>
</g>
<defs>
<linearGradient id="paint0_linear_12_170" x1="38.3062" y1="300.134" x2="38.3062" y2="0.133787" gradientUnits="userSpaceOnUse">
<stop stop-color="#A850CE"/>
<stop offset="1" stop-color="#FE8C8C"/>
</linearGradient>
<clipPath id="clip0_12_170">
<rect width="300" height="300" fill="white" transform="matrix(1.19249e-08 -1 -1 -1.19249e-08 188.306 300.134)"/>
</clipPath>
</defs>
</svg>
