<svg width="255" height="19" viewBox="0 0 255 19" fill="none" xmlns="http://www.w3.org/2000/svg">
<path d="M0.607612 18V0.719999H14.6116V18H11.7196V3.432H3.49961V18H0.607612ZM17.9748 18V0.719999H25.1148C25.2828 0.719999 25.4988 0.727999 25.7628 0.743999C26.0268 0.751999 26.2708 0.776 26.4948 0.816C27.4948 0.967999 28.3188 1.3 28.9668 1.812C29.6228 2.324 30.1068 2.972 30.4188 3.756C30.7388 4.532 30.8988 5.396 30.8988 6.348C30.8988 7.292 30.7388 8.156 30.4188 8.94C30.0988 9.716 29.6108 10.36 28.9548 10.872C28.3068 11.384 27.4868 11.716 26.4948 11.868C26.2708 11.9 26.0228 11.924 25.7508 11.94C25.4868 11.956 25.2748 11.964 25.1148 11.964H20.8668V18H17.9748ZM20.8668 9.264H24.9948C25.1548 9.264 25.3348 9.256 25.5348 9.24C25.7348 9.224 25.9188 9.192 26.0868 9.144C26.5668 9.024 26.9428 8.812 27.2148 8.508C27.4948 8.204 27.6908 7.86 27.8028 7.476C27.9228 7.092 27.9828 6.716 27.9828 6.348C27.9828 5.98 27.9228 5.604 27.8028 5.22C27.6908 4.828 27.4948 4.48 27.2148 4.176C26.9428 3.872 26.5668 3.66 26.0868 3.54C25.9188 3.492 25.7348 3.464 25.5348 3.456C25.3348 3.44 25.1548 3.432 24.9948 3.432H20.8668V9.264ZM40.6109 18.36C38.8829 18.36 37.4029 17.984 36.1709 17.232C34.9389 16.472 33.9909 15.416 33.3269 14.064C32.6709 12.712 32.3429 11.144 32.3429 9.36C32.3429 7.576 32.6709 6.008 33.3269 4.656C33.9909 3.304 34.9389 2.252 36.1709 1.5C37.4029 0.739999 38.8829 0.36 40.6109 0.36C42.3389 0.36 43.8189 0.739999 45.0509 1.5C46.2909 2.252 47.2389 3.304 47.8949 4.656C48.5589 6.008 48.8909 7.576 48.8909 9.36C48.8909 11.144 48.5589 12.712 47.8949 14.064C47.2389 15.416 46.2909 16.472 45.0509 17.232C43.8189 17.984 42.3389 18.36 40.6109 18.36ZM40.6109 15.636C41.7709 15.644 42.7349 15.388 43.5029 14.868C44.2789 14.348 44.8589 13.616 45.2429 12.672C45.6349 11.728 45.8309 10.624 45.8309 9.36C45.8309 8.096 45.6349 7 45.2429 6.072C44.8589 5.136 44.2789 4.408 43.5029 3.888C42.7349 3.368 41.7709 3.1 40.6109 3.084C39.4509 3.076 38.4869 3.332 37.7189 3.852C36.9509 4.372 36.3709 5.104 35.9789 6.048C35.5949 6.992 35.4029 8.096 35.4029 9.36C35.4029 10.624 35.5949 11.724 35.9789 12.66C36.3629 13.588 36.9389 14.312 37.7069 14.832C38.4829 15.352 39.4509 15.62 40.6109 15.636ZM58.5875 18.36C56.8595 18.36 55.3795 17.984 54.1475 17.232C52.9155 16.472 51.9675 15.416 51.3035 14.064C50.6475 12.712 50.3195 11.144 50.3195 9.36C50.3195 7.576 50.6475 6.008 51.3035 4.656C51.9675 3.304 52.9155 2.252 54.1475 1.5C55.3795 0.739999 56.8595 0.36 58.5875 0.36C60.5795 0.36 62.2395 0.86 63.5675 1.86C64.8955 2.852 65.8275 4.192 66.3635 5.88L63.4475 6.684C63.1115 5.556 62.5395 4.676 61.7315 4.044C60.9235 3.404 59.8755 3.084 58.5875 3.084C57.4275 3.084 56.4595 3.344 55.6835 3.864C54.9155 4.384 54.3355 5.116 53.9435 6.06C53.5595 6.996 53.3635 8.096 53.3555 9.36C53.3555 10.624 53.5475 11.728 53.9315 12.672C54.3235 13.608 54.9075 14.336 55.6835 14.856C56.4595 15.376 57.4275 15.636 58.5875 15.636C59.8755 15.636 60.9235 15.316 61.7315 14.676C62.5395 14.036 63.1115 13.156 63.4475 12.036L66.3635 12.84C65.8275 14.528 64.8955 15.872 63.5675 16.872C62.2395 17.864 60.5795 18.36 58.5875 18.36ZM73.1502 18V3.432H67.5582V0.719999H81.6342V3.432H76.0422V18H73.1502ZM90.8609 18.36C89.1329 18.36 87.6529 17.984 86.4209 17.232C85.1889 16.472 84.2409 15.416 83.5769 14.064C82.9209 12.712 82.5929 11.144 82.5929 9.36C82.5929 7.576 82.9209 6.008 83.5769 4.656C84.2409 3.304 85.1889 2.252 86.4209 1.5C87.6529 0.739999 89.1329 0.36 90.8609 0.36C92.5889 0.36 94.0689 0.739999 95.3009 1.5C96.5409 2.252 97.4889 3.304 98.1449 4.656C98.8089 6.008 99.1409 7.576 99.1409 9.36C99.1409 11.144 98.8089 12.712 98.1449 14.064C97.4889 15.416 96.5409 16.472 95.3009 17.232C94.0689 17.984 92.5889 18.36 90.8609 18.36ZM90.8609 15.636C92.0209 15.644 92.9849 15.388 93.7529 14.868C94.5289 14.348 95.1089 13.616 95.4929 12.672C95.8849 11.728 96.0809 10.624 96.0809 9.36C96.0809 8.096 95.8849 7 95.4929 6.072C95.1089 5.136 94.5289 4.408 93.7529 3.888C92.9849 3.368 92.0209 3.1 90.8609 3.084C89.7009 3.076 88.7369 3.332 87.9689 3.852C87.2009 4.372 86.6209 5.104 86.2289 6.048C85.8449 6.992 85.6529 8.096 85.6529 9.36C85.6529 10.624 85.8449 11.724 86.2289 12.66C86.6129 13.588 87.1889 14.312 87.9569 14.832C88.7329 15.352 89.7009 15.62 90.8609 15.636ZM113.642 18.36C111.914 18.36 110.434 17.984 109.202 17.232C107.97 16.472 107.022 15.416 106.358 14.064C105.702 12.712 105.374 11.144 105.374 9.36C105.374 7.576 105.702 6.008 106.358 4.656C107.022 3.304 107.97 2.252 109.202 1.5C110.434 0.739999 111.914 0.36 113.642 0.36C115.37 0.36 116.85 0.739999 118.082 1.5C119.322 2.252 120.27 3.304 120.926 4.656C121.59 6.008 121.922 7.576 121.922 9.36C121.922 11.144 121.59 12.712 120.926 14.064C120.27 15.416 119.322 16.472 118.082 17.232C116.85 17.984 115.37 18.36 113.642 18.36ZM113.642 15.636C114.802 15.644 115.766 15.388 116.534 14.868C117.31 14.348 117.89 13.616 118.274 12.672C118.666 11.728 118.862 10.624 118.862 9.36C118.862 8.096 118.666 7 118.274 6.072C117.89 5.136 117.31 4.408 116.534 3.888C115.766 3.368 114.802 3.1 113.642 3.084C112.482 3.076 111.518 3.332 110.75 3.852C109.982 4.372 109.402 5.104 109.01 6.048C108.626 6.992 108.434 8.096 108.434 9.36C108.434 10.624 108.626 11.724 109.01 12.66C109.394 13.588 109.97 14.312 110.738 14.832C111.514 15.352 112.482 15.62 113.642 15.636ZM136.423 18.36C134.695 18.36 133.215 17.984 131.983 17.232C130.751 16.472 129.803 15.416 129.139 14.064C128.483 12.712 128.155 11.144 128.155 9.36C128.155 7.576 128.483 6.008 129.139 4.656C129.803 3.304 130.751 2.252 131.983 1.5C133.215 0.739999 134.695 0.36 136.423 0.36C138.415 0.36 140.075 0.86 141.403 1.86C142.731 2.852 143.663 4.192 144.199 5.88L141.283 6.684C140.947 5.556 140.375 4.676 139.567 4.044C138.759 3.404 137.711 3.084 136.423 3.084C135.263 3.084 134.295 3.344 133.519 3.864C132.751 4.384 132.171 5.116 131.779 6.06C131.395 6.996 131.199 8.096 131.191 9.36C131.191 10.624 131.383 11.728 131.767 12.672C132.159 13.608 132.743 14.336 133.519 14.856C134.295 15.376 135.263 15.636 136.423 15.636C137.711 15.636 138.759 15.316 139.567 14.676C140.375 14.036 140.947 13.156 141.283 12.036L144.199 12.84C143.663 14.528 142.731 15.872 141.403 16.872C140.075 17.864 138.415 18.36 136.423 18.36ZM145.165 18V15.576C145.549 15.6 145.873 15.572 146.137 15.492C146.401 15.404 146.621 15.24 146.797 15C146.981 14.752 147.141 14.404 147.277 13.956C147.413 13.5 147.545 12.928 147.673 12.24C147.857 11.256 148.009 10.232 148.129 9.168C148.257 8.096 148.365 7.044 148.453 6.012C148.541 4.972 148.609 3.996 148.657 3.084C148.705 2.172 148.745 1.384 148.777 0.719999H160.345V18H157.453V3.432H151.453C151.413 3.968 151.365 4.616 151.309 5.376C151.261 6.128 151.193 6.944 151.105 7.824C151.025 8.704 150.921 9.616 150.793 10.56C150.673 11.504 150.525 12.432 150.349 13.344C150.189 14.176 149.997 14.924 149.773 15.588C149.549 16.244 149.249 16.788 148.873 17.22C148.505 17.644 148.021 17.928 147.421 18.072C146.829 18.216 146.077 18.192 145.165 18ZM171.017 18.36C169.289 18.36 167.809 17.984 166.577 17.232C165.345 16.472 164.397 15.416 163.733 14.064C163.077 12.712 162.749 11.144 162.749 9.36C162.749 7.576 163.077 6.008 163.733 4.656C164.397 3.304 165.345 2.252 166.577 1.5C167.809 0.739999 169.289 0.36 171.017 0.36C172.745 0.36 174.225 0.739999 175.457 1.5C176.697 2.252 177.645 3.304 178.301 4.656C178.965 6.008 179.297 7.576 179.297 9.36C179.297 11.144 178.965 12.712 178.301 14.064C177.645 15.416 176.697 16.472 175.457 17.232C174.225 17.984 172.745 18.36 171.017 18.36ZM171.017 15.636C172.177 15.644 173.141 15.388 173.909 14.868C174.685 14.348 175.265 13.616 175.649 12.672C176.041 11.728 176.237 10.624 176.237 9.36C176.237 8.096 176.041 7 175.649 6.072C175.265 5.136 174.685 4.408 173.909 3.888C173.141 3.368 172.177 3.1 171.017 3.084C169.857 3.076 168.893 3.332 168.125 3.852C167.357 4.372 166.777 5.104 166.385 6.048C166.001 6.992 165.809 8.096 165.809 9.36C165.809 10.624 166.001 11.724 166.385 12.66C166.769 13.588 167.345 14.312 168.113 14.832C168.889 15.352 169.857 15.62 171.017 15.636ZM179.05 18L185.554 9.192L179.554 0.719999H183.01L188.35 8.532V0.719999H191.242V8.532L196.582 0.719999H200.038L194.038 9.192L200.542 18H196.978L191.242 10.14V18H188.35V10.14L182.626 18H179.05ZM202.451 18V0.719999H205.343V7.992H213.527V0.719999H216.407V18H213.527V10.704H205.343V18H202.451ZM227.08 18.36C225.352 18.36 223.872 17.984 222.64 17.232C221.408 16.472 220.46 15.416 219.796 14.064C219.14 12.712 218.812 11.144 218.812 9.36C218.812 7.576 219.14 6.008 219.796 4.656C220.46 3.304 221.408 2.252 222.64 1.5C223.872 0.739999 225.352 0.36 227.08 0.36C228.808 0.36 230.288 0.739999 231.52 1.5C232.76 2.252 233.708 3.304 234.364 4.656C235.028 6.008 235.36 7.576 235.36 9.36C235.36 11.144 235.028 12.712 234.364 14.064C233.708 15.416 232.76 16.472 231.52 17.232C230.288 17.984 228.808 18.36 227.08 18.36ZM227.08 15.636C228.24 15.644 229.204 15.388 229.972 14.868C230.748 14.348 231.328 13.616 231.712 12.672C232.104 11.728 232.3 10.624 232.3 9.36C232.3 8.096 232.104 7 231.712 6.072C231.328 5.136 230.748 4.408 229.972 3.888C229.204 3.368 228.24 3.1 227.08 3.084C225.92 3.076 224.956 3.332 224.188 3.852C223.42 4.372 222.84 5.104 222.448 6.048C222.064 6.992 221.872 8.096 221.872 9.36C221.872 10.624 222.064 11.724 222.448 12.66C222.832 13.588 223.408 14.312 224.176 14.832C224.952 15.352 225.92 15.62 227.08 15.636ZM237.748 18V0.719999H240.352L246.328 12.96L252.304 0.719999H254.908V18H252.208V6.924L246.904 18H245.752L240.46 6.924V18H237.748Z" fill="#7E39A8"/>
<path d="M0.607612 18V0.719999H14.6116V18H11.7196V3.432H3.49961V18H0.607612ZM17.9748 18V0.719999H25.1148C25.2828 0.719999 25.4988 0.727999 25.7628 0.743999C26.0268 0.751999 26.2708 0.776 26.4948 0.816C27.4948 0.967999 28.3188 1.3 28.9668 1.812C29.6228 2.324 30.1068 2.972 30.4188 3.756C30.7388 4.532 30.8988 5.396 30.8988 6.348C30.8988 7.292 30.7388 8.156 30.4188 8.94C30.0988 9.716 29.6108 10.36 28.9548 10.872C28.3068 11.384 27.4868 11.716 26.4948 11.868C26.2708 11.9 26.0228 11.924 25.7508 11.94C25.4868 11.956 25.2748 11.964 25.1148 11.964H20.8668V18H17.9748ZM20.8668 9.264H24.9948C25.1548 9.264 25.3348 9.256 25.5348 9.24C25.7348 9.224 25.9188 9.192 26.0868 9.144C26.5668 9.024 26.9428 8.812 27.2148 8.508C27.4948 8.204 27.6908 7.86 27.8028 7.476C27.9228 7.092 27.9828 6.716 27.9828 6.348C27.9828 5.98 27.9228 5.604 27.8028 5.22C27.6908 4.828 27.4948 4.48 27.2148 4.176C26.9428 3.872 26.5668 3.66 26.0868 3.54C25.9188 3.492 25.7348 3.464 25.5348 3.456C25.3348 3.44 25.1548 3.432 24.9948 3.432H20.8668V9.264ZM40.6109 18.36C38.8829 18.36 37.4029 17.984 36.1709 17.232C34.9389 16.472 33.9909 15.416 33.3269 14.064C32.6709 12.712 32.3429 11.144 32.3429 9.36C32.3429 7.576 32.6709 6.008 33.3269 4.656C33.9909 3.304 34.9389 2.252 36.1709 1.5C37.4029 0.739999 38.8829 0.36 40.6109 0.36C42.3389 0.36 43.8189 0.739999 45.0509 1.5C46.2909 2.252 47.2389 3.304 47.8949 4.656C48.5589 6.008 48.8909 7.576 48.8909 9.36C48.8909 11.144 48.5589 12.712 47.8949 14.064C47.2389 15.416 46.2909 16.472 45.0509 17.232C43.8189 17.984 42.3389 18.36 40.6109 18.36ZM40.6109 15.636C41.7709 15.644 42.7349 15.388 43.5029 14.868C44.2789 14.348 44.8589 13.616 45.2429 12.672C45.6349 11.728 45.8309 10.624 45.8309 9.36C45.8309 8.096 45.6349 7 45.2429 6.072C44.8589 5.136 44.2789 4.408 43.5029 3.888C42.7349 3.368 41.7709 3.1 40.6109 3.084C39.4509 3.076 38.4869 3.332 37.7189 3.852C36.9509 4.372 36.3709 5.104 35.9789 6.048C35.5949 6.992 35.4029 8.096 35.4029 9.36C35.4029 10.624 35.5949 11.724 35.9789 12.66C36.3629 13.588 36.9389 14.312 37.7069 14.832C38.4829 15.352 39.4509 15.62 40.6109 15.636ZM58.5875 18.36C56.8595 18.36 55.3795 17.984 54.1475 17.232C52.9155 16.472 51.9675 15.416 51.3035 14.064C50.6475 12.712 50.3195 11.144 50.3195 9.36C50.3195 7.576 50.6475 6.008 51.3035 4.656C51.9675 3.304 52.9155 2.252 54.1475 1.5C55.3795 0.739999 56.8595 0.36 58.5875 0.36C60.5795 0.36 62.2395 0.86 63.5675 1.86C64.8955 2.852 65.8275 4.192 66.3635 5.88L63.4475 6.684C63.1115 5.556 62.5395 4.676 61.7315 4.044C60.9235 3.404 59.8755 3.084 58.5875 3.084C57.4275 3.084 56.4595 3.344 55.6835 3.864C54.9155 4.384 54.3355 5.116 53.9435 6.06C53.5595 6.996 53.3635 8.096 53.3555 9.36C53.3555 10.624 53.5475 11.728 53.9315 12.672C54.3235 13.608 54.9075 14.336 55.6835 14.856C56.4595 15.376 57.4275 15.636 58.5875 15.636C59.8755 15.636 60.9235 15.316 61.7315 14.676C62.5395 14.036 63.1115 13.156 63.4475 12.036L66.3635 12.84C65.8275 14.528 64.8955 15.872 63.5675 16.872C62.2395 17.864 60.5795 18.36 58.5875 18.36ZM73.1502 18V3.432H67.5582V0.719999H81.6342V3.432H76.0422V18H73.1502ZM90.8609 18.36C89.1329 18.36 87.6529 17.984 86.4209 17.232C85.1889 16.472 84.2409 15.416 83.5769 14.064C82.9209 12.712 82.5929 11.144 82.5929 9.36C82.5929 7.576 82.9209 6.008 83.5769 4.656C84.2409 3.304 85.1889 2.252 86.4209 1.5C87.6529 0.739999 89.1329 0.36 90.8609 0.36C92.5889 0.36 94.0689 0.739999 95.3009 1.5C96.5409 2.252 97.4889 3.304 98.1449 4.656C98.8089 6.008 99.1409 7.576 99.1409 9.36C99.1409 11.144 98.8089 12.712 98.1449 14.064C97.4889 15.416 96.5409 16.472 95.3009 17.232C94.0689 17.984 92.5889 18.36 90.8609 18.36ZM90.8609 15.636C92.0209 15.644 92.9849 15.388 93.7529 14.868C94.5289 14.348 95.1089 13.616 95.4929 12.672C95.8849 11.728 96.0809 10.624 96.0809 9.36C96.0809 8.096 95.8849 7 95.4929 6.072C95.1089 5.136 94.5289 4.408 93.7529 3.888C92.9849 3.368 92.0209 3.1 90.8609 3.084C89.7009 3.076 88.7369 3.332 87.9689 3.852C87.2009 4.372 86.6209 5.104 86.2289 6.048C85.8449 6.992 85.6529 8.096 85.6529 9.36C85.6529 10.624 85.8449 11.724 86.2289 12.66C86.6129 13.588 87.1889 14.312 87.9569 14.832C88.7329 15.352 89.7009 15.62 90.8609 15.636ZM113.642 18.36C111.914 18.36 110.434 17.984 109.202 17.232C107.97 16.472 107.022 15.416 106.358 14.064C105.702 12.712 105.374 11.144 105.374 9.36C105.374 7.576 105.702 6.008 106.358 4.656C107.022 3.304 107.97 2.252 109.202 1.5C110.434 0.739999 111.914 0.36 113.642 0.36C115.37 0.36 116.85 0.739999 118.082 1.5C119.322 2.252 120.27 3.304 120.926 4.656C121.59 6.008 121.922 7.576 121.922 9.36C121.922 11.144 121.59 12.712 120.926 14.064C120.27 15.416 119.322 16.472 118.082 17.232C116.85 17.984 115.37 18.36 113.642 18.36ZM113.642 15.636C114.802 15.644 115.766 15.388 116.534 14.868C117.31 14.348 117.89 13.616 118.274 12.672C118.666 11.728 118.862 10.624 118.862 9.36C118.862 8.096 118.666 7 118.274 6.072C117.89 5.136 117.31 4.408 116.534 3.888C115.766 3.368 114.802 3.1 113.642 3.084C112.482 3.076 111.518 3.332 110.75 3.852C109.982 4.372 109.402 5.104 109.01 6.048C108.626 6.992 108.434 8.096 108.434 9.36C108.434 10.624 108.626 11.724 109.01 12.66C109.394 13.588 109.97 14.312 110.738 14.832C111.514 15.352 112.482 15.62 113.642 15.636ZM136.423 18.36C134.695 18.36 133.215 17.984 131.983 17.232C130.751 16.472 129.803 15.416 129.139 14.064C128.483 12.712 128.155 11.144 128.155 9.36C128.155 7.576 128.483 6.008 129.139 4.656C129.803 3.304 130.751 2.252 131.983 1.5C133.215 0.739999 134.695 0.36 136.423 0.36C138.415 0.36 140.075 0.86 141.403 1.86C142.731 2.852 143.663 4.192 144.199 5.88L141.283 6.684C140.947 5.556 140.375 4.676 139.567 4.044C138.759 3.404 137.711 3.084 136.423 3.084C135.263 3.084 134.295 3.344 133.519 3.864C132.751 4.384 132.171 5.116 131.779 6.06C131.395 6.996 131.199 8.096 131.191 9.36C131.191 10.624 131.383 11.728 131.767 12.672C132.159 13.608 132.743 14.336 133.519 14.856C134.295 15.376 135.263 15.636 136.423 15.636C137.711 15.636 138.759 15.316 139.567 14.676C140.375 14.036 140.947 13.156 141.283 12.036L144.199 12.84C143.663 14.528 142.731 15.872 141.403 16.872C140.075 17.864 138.415 18.36 136.423 18.36ZM145.165 18V15.576C145.549 15.6 145.873 15.572 146.137 15.492C146.401 15.404 146.621 15.24 146.797 15C146.981 14.752 147.141 14.404 147.277 13.956C147.413 13.5 147.545 12.928 147.673 12.24C147.857 11.256 148.009 10.232 148.129 9.168C148.257 8.096 148.365 7.044 148.453 6.012C148.541 4.972 148.609 3.996 148.657 3.084C148.705 2.172 148.745 1.384 148.777 0.719999H160.345V18H157.453V3.432H151.453C151.413 3.968 151.365 4.616 151.309 5.376C151.261 6.128 151.193 6.944 151.105 7.824C151.025 8.704 150.921 9.616 150.793 10.56C150.673 11.504 150.525 12.432 150.349 13.344C150.189 14.176 149.997 14.924 149.773 15.588C149.549 16.244 149.249 16.788 148.873 17.22C148.505 17.644 148.021 17.928 147.421 18.072C146.829 18.216 146.077 18.192 145.165 18ZM171.017 18.36C169.289 18.36 167.809 17.984 166.577 17.232C165.345 16.472 164.397 15.416 163.733 14.064C163.077 12.712 162.749 11.144 162.749 9.36C162.749 7.576 163.077 6.008 163.733 4.656C164.397 3.304 165.345 2.252 166.577 1.5C167.809 0.739999 169.289 0.36 171.017 0.36C172.745 0.36 174.225 0.739999 175.457 1.5C176.697 2.252 177.645 3.304 178.301 4.656C178.965 6.008 179.297 7.576 179.297 9.36C179.297 11.144 178.965 12.712 178.301 14.064C177.645 15.416 176.697 16.472 175.457 17.232C174.225 17.984 172.745 18.36 171.017 18.36ZM171.017 15.636C172.177 15.644 173.141 15.388 173.909 14.868C174.685 14.348 175.265 13.616 175.649 12.672C176.041 11.728 176.237 10.624 176.237 9.36C176.237 8.096 176.041 7 175.649 6.072C175.265 5.136 174.685 4.408 173.909 3.888C173.141 3.368 172.177 3.1 171.017 3.084C169.857 3.076 168.893 3.332 168.125 3.852C167.357 4.372 166.777 5.104 166.385 6.048C166.001 6.992 165.809 8.096 165.809 9.36C165.809 10.624 166.001 11.724 166.385 12.66C166.769 13.588 167.345 14.312 168.113 14.832C168.889 15.352 169.857 15.62 171.017 15.636ZM179.05 18L185.554 9.192L179.554 0.719999H183.01L188.35 8.532V0.719999H191.242V8.532L196.582 0.719999H200.038L194.038 9.192L200.542 18H196.978L191.242 10.14V18H188.35V10.14L182.626 18H179.05ZM202.451 18V0.719999H205.343V7.992H213.527V0.719999H216.407V18H213.527V10.704H205.343V18H202.451ZM227.08 18.36C225.352 18.36 223.872 17.984 222.64 17.232C221.408 16.472 220.46 15.416 219.796 14.064C219.14 12.712 218.812 11.144 218.812 9.36C218.812 7.576 219.14 6.008 219.796 4.656C220.46 3.304 221.408 2.252 222.64 1.5C223.872 0.739999 225.352 0.36 227.08 0.36C228.808 0.36 230.288 0.739999 231.52 1.5C232.76 2.252 233.708 3.304 234.364 4.656C235.028 6.008 235.36 7.576 235.36 9.36C235.36 11.144 235.028 12.712 234.364 14.064C233.708 15.416 232.76 16.472 231.52 17.232C230.288 17.984 228.808 18.36 227.08 18.36ZM227.08 15.636C228.24 15.644 229.204 15.388 229.972 14.868C230.748 14.348 231.328 13.616 231.712 12.672C232.104 11.728 232.3 10.624 232.3 9.36C232.3 8.096 232.104 7 231.712 6.072C231.328 5.136 230.748 4.408 229.972 3.888C229.204 3.368 228.24 3.1 227.08 3.084C225.92 3.076 224.956 3.332 224.188 3.852C223.42 4.372 222.84 5.104 222.448 6.048C222.064 6.992 221.872 8.096 221.872 9.36C221.872 10.624 222.064 11.724 222.448 12.66C222.832 13.588 223.408 14.312 224.176 14.832C224.952 15.352 225.92 15.62 227.08 15.636ZM237.748 18V0.719999H240.352L246.328 12.96L252.304 0.719999H254.908V18H252.208V6.924L246.904 18H245.752L240.46 6.924V18H237.748Z" fill="url(#paint0_linear_75_0)"/>
<defs>
<linearGradient id="paint0_linear_75_0" x1="5.20296" y1="11.351" x2="22.7479" y2="-51.0321" gradientUnits="userSpaceOnUse">
<stop stop-color="#AB52CE"/>
<stop offset="1" stop-color="#FE8687"/>
</linearGradient>
</defs>
</svg>
